<?xml version="1.0" standalone="no"?>
<!DOCTYPE svg PUBLIC "-//W3C//DTD SVG 1.1//EN" "http://www.w3.org/Graphics/SVG/1.1/DTD/svg11.dtd" >
<svg xmlns="http://www.w3.org/2000/svg">
<metadata>
Created by FontPrep 20130207 at Sat Apr  4 12:12:07 2015
 By Nick Hartskeerl
Copyright Monotype Typography ltd 1993. All rights reserved.
</metadata>
<defs>
<font id="9d5736c571ddc2e5d26a5d47c6ef1a49" horiz-adv-x='1024' >
  <font-face 
    font-family="FelixTitlingMT"
    font-weight="400"
    font-stretch="normal"
    units-per-em="2048"
    panose-1="2 4 5 3 6 3 6 2 9 1"
    ascent="1638"
    descent="-410"
    x-height="1473"
    cap-height="1473"
    bbox="-369 -494 2107 1901.04"
    underline-thickness="102"
    underline-position="-154"
    unicode-range="U+0020-F002"
  />
<missing-glyph horiz-adv-x="748" 
d="M136 68h408v1229h-408v-1229zM68 0v1365h544v-1365h-544z" />
    <glyph glyph-name=".notdef" horiz-adv-x="748" 
d="M136 68h408v1229h-408v-1229zM68 0v1365h544v-1365h-544z" />
    <glyph glyph-name="glyph1" horiz-adv-x="0" 
 />
    <glyph glyph-name="glyph2" horiz-adv-x="596" 
 />
    <glyph glyph-name="space" unicode=" " horiz-adv-x="596" 
 />
    <glyph glyph-name="exclam" unicode="!" horiz-adv-x="342" 
d="M178 -23q-36 0 -76.5 22.5t-40.5 77.5q0 54 31 86t77 32t78 -31t32 -77t-32.5 -78t-68.5 -32zM178 428v-39h-18q-2 20 -4 100q-27 330 -33 564q-4 20 -4 77l-4 60q-10 144 -17 190.5t-23.5 60t-64.5 13.5v19h275l-52 -553q-5 -50 -16 -114t-25 -196t-14 -182z" />
    <glyph glyph-name="quotedbl" unicode="&#x22;" horiz-adv-x="682" 
d="M379 1386q0 43 31.5 76t87.5 33t101.5 -53.5t45.5 -149.5t-44.5 -165.5t-97 -107.5t-120.5 -75l-8 8q176 127 176 301q0 39 -21 39l-43 -8q-41 0 -74.5 29.5t-33.5 72.5zM37 1386q0 43 31 76t88 33t102 -53.5t45 -149.5t-44.5 -165.5t-97 -107.5t-120.5 -75l-6 8
q105 76 140.5 158t35.5 132t-23 50l-43 -8q-41 0 -74.5 29.5t-33.5 72.5z" />
    <glyph glyph-name="numbersign" unicode="#" horiz-adv-x="1024" 
d="M666 860h-254l-52 -373h256zM424 954h256l57 424h97l-58 -424h209l-12 -94h-211l-49 -373h211l-13 -94h-213l-57 -426h-96l57 426h-254l-59 -426h-96l59 426h-211l12 94h211l51 373h-204l12 94h205l59 424h96z" />
    <glyph glyph-name="dollar" unicode="$" horiz-adv-x="1004" 
d="M883 358q0 106 -84.5 177t-259.5 124l-2 -628q83 0 163.5 39t131.5 110.5t51 177.5zM176 1178q0 -86 28.5 -140t99.5 -110.5t194 -89.5v598q-72 3 -146 -23t-125 -87.5t-51 -147.5zM975 385q0 -96 -47.5 -184.5t-145.5 -147.5t-245 -71v-218h-41v216q-195 0 -392 96
l-75 327h16q77 -226 218 -296t233 -76l2 641l-15 4q-127 49 -175 73t-101 74t-87 130t-34 164t49.5 168.5t143.5 136t219 51.5v104h43v-104q174 -19 311 -107l53 -201h-18q-59 108 -126.5 166.5t-118.5 76.5t-103 26v-611q180 -43 308 -146t128 -292z" />
    <glyph glyph-name="percent" unicode="%" horiz-adv-x="1642" 
d="M305 0l963 1497l65 -24l-960 -1498zM1516 316q0 203 -62.5 313t-155.5 110q-70 0 -125 -67.5t-55 -240.5t64.5 -287.5t154.5 -114.5q37 0 78.5 25.5t71 90.5t29.5 171zM999 350q0 126 43.5 224.5t119.5 152t161 53.5t153 -35.5t112 -118t44 -192.5q0 -198 -89 -321
t-228 -123q-140 0 -228 94.5t-88 265.5zM524 1040q0 204 -63.5 312t-143.5 108t-135 -67.5t-55 -209.5t30 -237.5t81.5 -145.5t97.5 -50t88 25.5t71 90.5t29 174zM10 1071q0 128 43 225.5t118.5 151t160.5 53.5t153.5 -35.5t113 -118t44.5 -205.5t-39.5 -220t-115.5 -155
t-190 -58t-201 95t-87 267z" />
    <glyph glyph-name="ampersand" unicode="&#x26;" horiz-adv-x="1855" 
d="M156 614q0 -132 88 -263t236 -214.5t296 -83.5t222.5 34t160.5 103q12 9 15 11l-562 544q-7 8 -27 27q-87 83 -128 143q-301 -69 -301 -301zM1004.5 43.5q-136.5 -66.5 -350.5 -66.5t-360 84t-201.5 209.5t-55.5 227.5t43.5 196.5t131.5 161.5t216 92q-51 75 -78.5 131
t-27.5 150t78.5 180t246.5 86q98 0 168.5 -24t155.5 -72l63 -168h-20q-96 123 -208.5 173t-200.5 50t-134.5 -53t-46.5 -111t38.5 -130.5t158.5 -192.5l653 -645q76 103 102.5 258.5t26.5 225.5t-32 88.5t-103 18.5l-33 -2v17l313 2v-19q-51 6 -69 -31.5t-35 -155.5
t-47 -226.5t-94 -204.5l151 -150q64 -54 111 -81t118 -27t160 51l10 -14q-128 -95 -290 -95q-93 1 -153 33q-120 64 -148 103q-1 5 -11 14l-49 47q-61 -64 -197.5 -130.5z" />
    <glyph glyph-name="quotesingle" unicode="'" horiz-adv-x="342" 
d="M37 1386q0 43 31 76t88 33t102 -53.5t45 -149.5t-44.5 -165.5t-97 -107.5t-120.5 -75l-6 8q105 76 140.5 158t35.5 132t-23 50l-43 -8q-41 0 -74.5 29.5t-33.5 72.5z" />
    <glyph glyph-name="parenleft" unicode="(" horiz-adv-x="748" 
d="M145 500q0 -220 63 -390.5t151.5 -277.5t166.5 -164.5t162 -105.5l-35 -56q-231 113 -403 366t-172 634q0 306 140.5 571.5t434.5 417.5l35 -55q-78 -43 -160.5 -103.5t-171 -168.5t-150 -278t-61.5 -390z" />
    <glyph glyph-name="parenright" unicode=")" horiz-adv-x="748" 
d="M602 504q0 224 -62.5 392t-152 276t-169.5 166t-159 102l35 55q140 -67 270.5 -196t218 -333t87.5 -490t-140.5 -552t-435.5 -418l-35 56q89 50 166 106.5t166 165.5t150 277.5t61 392.5z" />
    <glyph glyph-name="asterisk" unicode="*" horiz-adv-x="725" 
d="M363 1257q-50 0 -85.5 -34.5t-35.5 -85.5t35 -85t85 -34t84.5 34t34.5 86t-34 85.5t-84 33.5zM369 772h-15l-67 236l-236 -58l-6 15l164 174l-164 174l8 10l230 -57l73 231h15l65 -231l234 61l8 -12l-166 -180l166 -177l-8 -14l-232 64z" />
    <glyph glyph-name="plus" unicode="+" horiz-adv-x="1124" 
d="M506 1092h112v-482h486v-112h-486v-498h-112v498h-486v112h486v482z" />
    <glyph glyph-name="comma" unicode="," horiz-adv-x="342" 
d="M211 -64q0 50 -21 50q-6 0 -22 -4l-23 -5q-40 0 -74 29t-34 73t31.5 76.5t87.5 32.5t101.5 -52.5t45.5 -147.5q0 -139 -78.5 -218t-181.5 -132l-8 8q105 74 140.5 157t35.5 133z" />
    <glyph glyph-name="hyphen" unicode="-" horiz-adv-x="512" 
d="M45 694v84h422v-84h-422z" />
    <glyph glyph-name="period" unicode="." horiz-adv-x="342" 
d="M171 197q46 0 77 -32.5t31 -76.5t-30.5 -76t-76.5 -32t-78.5 32.5t-32.5 75.5t32 76t78 33z" />
    <glyph glyph-name="slash" unicode="/" horiz-adv-x="575" 
d="M588 1468h135l-735 -1468h-135z" />
    <glyph glyph-name="zero" unicode="0" horiz-adv-x="1192" 
d="M874 203q80 149 80 460q0 312 -101.5 548.5t-295.5 236.5q-93 0 -164.5 -71.5t-112 -197t-40.5 -307.5t26 -330t77.5 -264.5t127.5 -181.5t157 -65t145.5 51t100.5 121zM80 649q0 199 38.5 351t111 264.5t174.5 174.5t202 62q261 0 393 -219q115 -189 115 -487
q0 -218 -65 -406t-188 -300t-273 -112t-262.5 79t-179 236.5t-66.5 356.5z" />
    <glyph glyph-name="one" unicode="1" horiz-adv-x="532" 
d="M354 1499v-1364q0 -53 9 -77.5t35 -34t83 -9.5v-14h-413v14q56 2 92.5 12.5t36.5 123.5v1101q0 45 -8.5 70t-36.5 25t-78 -25v14l264 164h16z" />
    <glyph glyph-name="two" unicode="2" 
d="M47 0v37q18 15 169 136t268.5 266t156.5 214q129 225 129 417t-94 283t-216 91q-121 0 -228 -80.5t-166 -189.5l-39 20q33 52 68.5 99.5t130.5 125.5t293 78t313.5 -119t115.5 -284q0 -200 -164.5 -405t-369.5 -398l-170 -160h616q63 0 90.5 5.5t51 24.5t61.5 70h20
l-67 -231h-969z" />
    <glyph glyph-name="three" unicode="3" horiz-adv-x="1153" 
d="M565 1495q216 0 308 -84t92 -185t-50.5 -170.5t-111 -110t-135.5 -79.5v-4q186 -25 273 -149t87 -264q0 -139 -71 -246t-188 -165t-251 -58t-242.5 53.5t-205.5 138.5v53q110 -89 206 -140.5t192 -51.5q178 0 284 102t106 266q0 96 -43 177t-128.5 130.5t-209.5 49.5
q-55 0 -110 -10v40q9 6 71 22t143.5 51.5t147.5 112t66 178.5t-33.5 167t-94.5 101t-143 36t-154.5 -44t-116 -97t-93.5 -129l-17 2l54 198q113 69 196.5 89t171.5 20z" />
    <glyph glyph-name="four" unicode="4" 
d="M651 608v690l-4 5l-514 -695h518zM1079 526h-270v-376q0 -53 9.5 -94.5t90.5 -41.5h27v-14h-424v14h27q48 0 80 12.5t32 120.5v379h-626l720 973h66v-889h172q49 0 62.5 8t15.5 37h18v-129z" />
    <glyph glyph-name="five" unicode="5" horiz-adv-x="1153" 
d="M1040 502q0 -138 -68 -257.5t-189 -192t-262 -72.5t-248 46.5t-222 135.5v47l23 -14q127 -74 209.5 -107t199.5 -33t212 61t141.5 154t46.5 174q0 157 -97 263t-282 106q-82 0 -178 -27t-152 -55l94 742h668q44 0 65.5 6t32.5 30l17 2l-47 -168l-699 -2l-55 -415
q120 57 274 57q153 0 269.5 -61t181.5 -171.5t65 -248.5z" />
    <glyph glyph-name="six" unicode="6" horiz-adv-x="1192" 
d="M262 554q0 -94 58.5 -221t158.5 -211.5t201 -84.5t165.5 43.5t97 112t32.5 163.5t-52.5 220.5t-148 208.5t-215.5 83q-82 0 -150 -42t-107.5 -110t-39.5 -162zM662 954q123 0 227 -61.5t164.5 -171t60.5 -227.5q0 -224 -143 -369t-357 -145t-375 177.5t-161 440.5
q0 200 89 390.5t279.5 329t479.5 181.5l10 -26q-134 -30 -249 -83t-215 -162q-199 -217 -218 -509l4 -4q87 163 210.5 201t193.5 38z" />
    <glyph glyph-name="seven" unicode="7" 
d="M346 1343q-231 0 -262.5 -47.5t-40.5 -76.5l-16 2l41 252h1011l-706 -1491h-107l645 1361h-565z" />
    <glyph glyph-name="eight" unicode="8" horiz-adv-x="1192" 
d="M256 414q0 -105 48.5 -191.5t135.5 -142t198 -55.5t214.5 80t103.5 212q0 169 -127.5 259t-259.5 163l-18 11q-131 -63 -213 -147t-82 -189zM872 1144q0 141 -88 221.5t-204 80.5q-117 0 -203 -56t-86 -165q0 -81 42 -129t145 -118t190 -118q90 49 147 126.5t57 157.5z
M190 1134q0 96 47.5 177t146 134.5t238.5 53.5t228 -41t130 -108.5t42 -145.5q0 -223 -311 -368q174 -104 276.5 -205t102.5 -237t-69 -226.5t-186 -139t-253 -48.5t-244.5 43t-172 126t-63.5 179t52.5 200.5t351.5 243.5q-65 41 -109.5 69t-65.5 44t-34 30t-27 29
q-80 94 -80 190z" />
    <glyph glyph-name="nine" unicode="9" horiz-adv-x="1192" 
d="M930 926q0 95 -59 221.5t-159 211.5t-200 85t-164.5 -43.5t-97.5 -113.5t-33 -164t52.5 -219.5t148 -208.5t215.5 -83q82 0 150.5 42.5t107.5 109.5t39 162zM526 526q-119 0 -223 62t-164.5 170.5t-60.5 244.5t65.5 250t177 180t233.5 66q239 0 399.5 -175t160.5 -441
q0 -320 -213.5 -580t-634.5 -323l-10 28q141 33 253 83.5t216 164.5q194 213 213 504l-4 4q-66 -123 -177.5 -180.5t-230.5 -57.5z" />
    <glyph glyph-name="colon" unicode=":" horiz-adv-x="342" 
d="M171 1004q46 0 77 -32t31 -77t-31.5 -77t-69.5 -32t-77.5 23t-39.5 76t32 86t78 33zM171 197q46 0 77 -32.5t31 -76.5t-30.5 -76t-76.5 -32t-78.5 32.5t-32.5 75.5t32 76t78 33z" />
    <glyph glyph-name="semicolon" unicode=";" horiz-adv-x="342" 
d="M171 1004q46 0 77 -32t31 -77t-31.5 -77t-69.5 -32t-77.5 23t-39.5 76t32 86t78 33zM211 -64q0 50 -21 50q-6 0 -22 -4l-23 -5q-40 0 -74 29t-34 73t31.5 76.5t87.5 32.5t101.5 -52.5t45.5 -147.5q0 -139 -78.5 -218t-181.5 -132l-8 8q105 74 140.5 157t35.5 133z" />
    <glyph glyph-name="less" unicode="&#x3c;" horiz-adv-x="1124" 
d="M53 471v127l1018 471v-127l-887 -407l887 -408v-127z" />
    <glyph glyph-name="equal" unicode="=" horiz-adv-x="1124" 
d="M1100 401v-112h-1077v112h1077zM1100 799v-113h-1077v113h1077z" />
    <glyph glyph-name="greater" unicode="&#x3e;" horiz-adv-x="1124" 
d="M1071 598v-127l-1018 -471v127l887 408l-887 407v127z" />
    <glyph glyph-name="question" unicode="?" horiz-adv-x="725" 
d="M277 195q45 0 76.5 -32.5t31.5 -76.5t-32.5 -76.5t-76.5 -32.5t-76 31t-32 77t32 78t77 32zM565 1196q0 62 -30.5 123t-87.5 99t-141 38t-159 -47.5t-114 -140.5h-17l47 174q129 53 237 53q202 0 301 -103.5t99 -254.5q0 -112 -48.5 -187t-106 -110.5t-115.5 -57.5
t-83 -36.5t-31.5 -31.5t-10.5 -61l-20 -268h-21l-20 516q151 27 236 102t85 193z" />
    <glyph glyph-name="A" unicode="A" horiz-adv-x="1409" 
d="M440 719h398l-199 502zM1055 14q47 0 47 46q0 20 -12 47q-12 28 -15.5 36.5t-5.5 10.5l-213 524h-430l-223 -557q-11 -25 -17 -39t-6 -35q0 -33 49 -33v-14h-219v14q59 1 86 33t54 100l534 1348h25l526 -1302q0 -8 6 -17l8 -22q25 -62 57.5 -101t92.5 -39v-14h-344v14z
" />
    <glyph glyph-name="B" unicode="B" horiz-adv-x="1194" 
d="M473 764h-115v-467q0 -70 5.5 -110t48.5 -94t243 -54q126 0 195 41q119 71 119 277t-80.5 292.5t-153.5 100.5t-262 14zM358 1442v-647h179q182 0 241.5 103.5t59.5 207.5q0 215 -174 295q-91 41 -267 41h-39zM84 1473h383q129 0 199 -8.5t144 -42.5t128.5 -114.5
t54.5 -185.5q0 -188 -184 -295q133 -24 205 -94q116 -110 116 -291q0 -135 -71 -256.5t-168.5 -153.5t-239.5 -32h-569v14q52 0 74 15t27 46.5t5 106.5v1110q0 76 -4.5 106t-26.5 44.5t-73 15.5v15z" />
    <glyph glyph-name="C" unicode="C" horiz-adv-x="1579" 
d="M885 1456q-214 0 -366.5 -89.5t-229 -229.5t-76.5 -271t42 -274t133 -274t241.5 -216.5t337.5 -85.5t346.5 54t236.5 143l13 -4l-103 -158q-225 -49 -304 -61.5t-222 -12.5q-383 0 -586 150q-128 94 -201 247t-73 314t53.5 302t160 255t266.5 182t359 68q201 0 369 -69
q51 -21 57.5 -23t8.5 -4l55 -156h-14q-117 117 -249.5 165t-254.5 48z" />
    <glyph glyph-name="D" unicode="D" horiz-adv-x="1729" 
d="M580 1442h-226v-1143q0 -93 43.5 -176.5t354.5 -83.5q250 0 424 83.5t249.5 268.5t75.5 301t-26.5 210.5t-83 184.5t-221 222.5t-590.5 132.5zM78 1473h676q260 0 395 -36.5t223 -94.5t189.5 -187t101.5 -363t-150.5 -479.5t-355.5 -279t-387 -33.5h-692v14h18
q35 0 61.5 24.5t26.5 176.5v1073q0 108 -16 138.5t-90 31.5v15z" />
    <glyph glyph-name="E" unicode="E" 
d="M80 1456v17h926v-203h-15q-22 81 -35.5 110t-34.5 36t-81 7h-486v-661h451q53 0 76.5 8t27.5 41h15v-139h-15q-7 34 -27.5 41.5t-64.5 7.5h-463v-455q0 -102 19.5 -148t59 -57.5t126.5 -11.5h260q105 0 149.5 7t69 38.5t35.5 108.5h14v-203h-1007v14q55 4 79.5 21
t24.5 84v1190q0 89 -17 118t-87 29z" />
    <glyph glyph-name="F" unicode="F" horiz-adv-x="1024" 
d="M348 733v-588q0 -78 22 -104t91 -27v-14h-387v14q60 0 82 21t22 78v1212q0 104 -34 118.5t-70 14.5v15h932v-173h-15q0 7 -2 13q-17 70 -51.5 90t-114.5 20h-475v-649h443q52 0 75 8t27 41h14v-141h-14q-5 51 -66 51h-479z" />
    <glyph glyph-name="G" unicode="G" horiz-adv-x="1556" 
d="M1522 14v-14h-594q-177 0 -286 32.5t-193 86.5q-174 109 -277.5 278t-103.5 353q0 125 55.5 257t163.5 243t264.5 178t362.5 67t444 -96l61 -170h-14q-78 99 -213.5 163t-289.5 64t-277.5 -61t-250 -221t-126.5 -465q0 -233 93 -372.5t199 -199.5t228.5 -79t196.5 -19
l79 2q89 2 129.5 9.5t56 33.5t15.5 84v223q0 65 -26 87t-78 20v14h381v-14q-69 -1 -88 -29t-19 -92v-232q0 -70 18.5 -100.5t67.5 -30.5h21z" />
    <glyph glyph-name="H" unicode="H" horiz-adv-x="1516" 
d="M1161 735h-809v-567q0 -61 8 -108.5t99 -45.5v-14h-381v14q44 -2 74 16.5t30 84.5v1185q0 102 -15.5 128t-88.5 30v15h381v-15q-52 -2 -79.5 -19.5t-27.5 -86.5v-576h809v527q0 93 -15.5 124t-86.5 31v15h377v-15q-52 -1 -73.5 -14.5t-26.5 -42.5t-5 -98v-1131
q0 -64 7.5 -111t97.5 -47v-14h-377v14q46 2 66 12t28 42t8 106v561z" />
    <glyph glyph-name="I" unicode="I" horiz-adv-x="532" 
d="M463 1473v-15q-34 3 -72.5 -11.5t-38.5 -66.5q-2 -12 -2 -75v-1131q0 -70 7.5 -116t105.5 -44v-14h-393v14q53 2 75.5 14.5t28.5 41.5t6 102v1120q0 67 -8 119t-102 47v15h393z" />
    <glyph glyph-name="J" unicode="J" horiz-adv-x="532" 
d="M70 1473h395v-15q-77 -1 -95 -30.5t-18 -100.5v-1253q0 -256 -28 -340t-80 -135q-91 -93 -230 -93q-87 0 -180 31l2 17q32 -9 102 -9t129 47.5t87 129.5t28 243v1356q0 79 -18 108.5t-94 28.5v15z" />
    <glyph glyph-name="K" unicode="K" horiz-adv-x="1686" 
d="M1176 14q67 0 67 15t-55 55l-832 633v-547q0 -66 9.5 -114.5t113.5 -41.5v-14h-420v14q105 -5 116 39.5t11 110.5v1143q0 69 -8 99.5t-34 42t-85 9.5v15h422v-15q-81 3 -103 -27t-22 -116v-565l875 657q26 20 26 33q0 18 -59 18v15h318v-15q-122 -3 -234 -88l-762 -569
l760 -578q4 -2 32 -22q110 -79 197 -133t168 -54v-14h-501v14z" />
    <glyph glyph-name="L" unicode="L" 
d="M25 0v14q71 0 90.5 26t19.5 89v1206q0 79 -22.5 100t-89.5 23v15h395v-15q-97 2 -105 -40t-8 -93v-1034q0 -133 65 -187.5t218 -54.5h180q185 0 219 99.5t39 205.5h14v-354h-1015z" />
    <glyph glyph-name="M" unicode="M" horiz-adv-x="1812" 
d="M1659 1473v-15q-117 -5 -117 -123q0 -15 6 -69l154 -1116q15 -104 41.5 -118.5t62.5 -17.5v-14h-331v14q65 -2 65 64q0 16 -6 59l-150 1082h-4l-524 -1219h-10l-527 1217h-4l-149 -1088q-4 -18 -4 -50t12 -48.5t55 -16.5v-14h-225v14q41 2 64 10.5t36 104.5l168 1190
l-22 49q-41 90 -139 90v15h278l518 -1205l520 1205h232z" />
    <glyph glyph-name="N" unicode="N" horiz-adv-x="1642" 
d="M1288 1473h285v-15q-66 -2 -90.5 -27.5t-24.5 -107.5v-1341l-1175 1251v-1090q0 -81 18 -99t32 -21t56 -9v-14h-283v14q56 1 79.5 15t28.5 42.5t5 98.5v997q0 125 -35 210.5t-170 80.5v15h277l1104 -1176v1040q0 76 -25.5 98.5t-81.5 22.5v15z" />
    <glyph glyph-name="O" unicode="O" horiz-adv-x="1665" 
d="M1505 680q0 147 -72 289t-186.5 241.5t-246.5 153t-257 53.5t-259 -72.5t-219 -205t-85 -316.5t99.5 -365.5t262.5 -292t345 -110.5q116 0 229 47t199 127.5t138 192t52 258.5zM1597 820q0 -152 -55 -308.5t-163.5 -277.5t-265.5 -189t-331 -68q-327 0 -520.5 200
t-193.5 480q0 142 52 290.5t155 272t260 199.5t337 76t309.5 -50.5t223.5 -142t143 -211t49 -271.5z" />
    <glyph glyph-name="P" unicode="P" horiz-adv-x="1087" 
d="M82 1458v15h420q122 0 230 -19t199 -101.5t91 -263.5t-133.5 -271.5t-345.5 -86.5v14q86 0 158.5 36.5t114.5 108t42 170.5t-39.5 183.5t-115.5 132.5t-242 47h-105v-1261q0 -93 15 -114t35 -26.5t65 -7.5v-14h-389v14q48 2 76 20t28 75v1220q0 49 -8 89t-96 40z" />
    <glyph glyph-name="Q" unicode="Q" horiz-adv-x="1665" 
d="M1505 678q0 147 -72 290t-185.5 241.5t-246.5 153t-258 54.5t-259 -72.5t-219 -205t-85 -291.5t57 -300.5t158 -254t230 -176.5t253 -64t237.5 47t199.5 127.5t138 192t52 258.5zM1956 -395q-148 -70 -300 -70q-60 0 -169 30.5t-303 120.5t-416 291q-120 0 -244 34
t-250 153q-206 204 -206 491q0 196 93.5 390t281 322t450.5 128q315 0 509.5 -190.5t194.5 -463.5t-104 -444.5t-222 -262t-284 -130.5q13 -11 21 -14q23 -23 163 -118.5t244 -150t210.5 -84.5t184.5 -30t144 10z" />
    <glyph glyph-name="R" unicode="R" horiz-adv-x="1622" 
d="M356 1434v-691h154q45 0 110.5 11.5t98.5 29.5q63 35 106 102.5t43 169.5t-70 240t-321 138h-121zM80 1473h418q137 0 198.5 -4.5t114.5 -22.5q97 -29 155 -105.5t58 -175.5t-52 -208.5t-206 -194.5l113 -174q19 -35 122.5 -180.5t186.5 -241.5q38 -43 102 -81t131 -38
q67 -1 96 13t49 25t36 19l6 -20q-126 -98 -306 -98t-295 142t-182 244t-71 109l-148 228l-55 -2q-12 -2 -76 -2h-119v-564q0 -100 31 -112.5t74 -14.5v-14h-381v14q70 3 88 28.5t18 111.5v1171q0 107 -31.5 119t-74.5 14v15z" />
    <glyph glyph-name="S" unicode="S" horiz-adv-x="981" 
d="M506 1495q116 0 280 -41l70 -184l-12 -2q-1 2 -25 29q-134 151 -319 151q-103 0 -178 -42t-112.5 -110t-37.5 -140q0 -130 77.5 -184t217.5 -100q140 -45 231.5 -88.5t164.5 -134t73 -226.5t-65 -234.5t-162 -147.5q-39 -18 -133.5 -29.5t-131.5 -11.5h-393v428h15
q2 -95 38 -238t367 -143q216 0 299.5 99.5t83.5 196.5t-50 158.5t-121.5 96.5t-196.5 78t-176.5 69t-99.5 72t-81 118.5t-33 168.5t50.5 188t147 147.5t212.5 55.5z" />
    <glyph glyph-name="T" unicode="T" horiz-adv-x="1237" 
d="M1159 1386q0 28 -17.5 33.5t-51.5 5.5h-385v-1261q0 -89 15 -113t36 -30.5t65 -6.5v-14h-399v14q50 5 72.5 14t31.5 33.5t9 81.5v1282h-369q-55 0 -72.5 -6t-17.5 -25t8 -48h-14l-70 178h14q20 -36 38 -44t73 -7h979q59 0 83.5 7t37.5 44h14l-70 -178h-14q4 12 4 40z" />
    <glyph glyph-name="U" unicode="U" horiz-adv-x="1536" 
d="M1452 0h-278v227q-212 -237 -508 -237q-203 0 -339.5 115t-136.5 348v882q0 55 -10 90t-98 33v15h391v-15q-57 0 -85 -18.5t-28 -93.5v-809q0 -260 120.5 -365.5t269.5 -105.5q239 0 424 215v997q0 75 -9.5 127.5t-85.5 52.5h-14v15h387v-15q-59 -2 -84 -17.5t-25 -82.5
v-1200q0 -57 8 -101.5t101 -42.5v-14z" />
    <glyph glyph-name="V" unicode="V" horiz-adv-x="1409" 
d="M10 1458v15h340v-15q-45 3 -45 -35q0 -29 21 -67l442 -1100l440 1098q0 2 12 29t11 44q0 35 -53 31v15h221v-15q-50 0 -69.5 -18.5t-59.5 -87.5l-551 -1375h-19l-524 1297q-44 113 -80 148.5t-86 35.5z" />
    <glyph glyph-name="W" unicode="W" horiz-adv-x="2111" 
d="M1892 1458v15h215v-15q-79 -6 -117 -91q-16 -34 -22 -52l-475 -1338h-23l-407 1123h-4l-395 -1123h-23l-479 1315q-31 85 -64 126t-94 40v15h348v-15q-51 0 -51 -37q0 -27 16 -67l390 -1071h4l317 905l-31 86q-35 100 -73 142.5t-90 41.5v15h344v-15q-50 0 -50 -43
q0 -11 10 -39t11 -30l389 -1067h4l379 1071l23 71q0 37 -52 37z" />
    <glyph glyph-name="X" unicode="X" horiz-adv-x="1386" 
d="M1253 1473v-15q-69 5 -97.5 -40t-41.5 -58l-375 -529l449 -647q0 -1 10 -16q66 -100 104 -128t74 -26v-14h-366v14q47 -4 47 33q0 32 -17 51l-14 23q-2 0 -6 8l-385 555l-395 -551q0 -4 -7 -10l-16 -25q-27 -34 -27 -57q0 -29 50 -27v-14h-220v14q46 -2 94 48
q10 11 13 16l471 659l-440 635q0 6 -6 12q-18 32 -50.5 54.5t-66.5 19.5v15h371v-15q-60 0 -60 -33t37 -77l322 -463l346 485q2 2 16 24t14 40t-12 21t-39 3v15h223z" />
    <glyph glyph-name="Y" unicode="Y" horiz-adv-x="1174" 
d="M940 1473h221v-15q-41 -2 -69 -20t-62 -70l-360 -545v-676q0 -83 20.5 -107t91.5 -26v-14h-393v14q47 -2 80 14.5t33 84.5l-2 32v623l-361 598q-53 94 -127 92v15h348v-15q-49 0 -49 -37q1 -9 13 -34l12 -25l297 -490l325 494l5 4q26 43 26 55q0 33 -43 33h-6v15z" />
    <glyph glyph-name="Z" unicode="Z" horiz-adv-x="1450" 
d="M1411 231v-231h-1397l1143 1417h-766q-69 0 -103.5 -11.5t-50.5 -40.5t-26 -93h-14l8 201h1212l-1147 -1418h977q79 0 111 32t39 144h14z" />
    <glyph glyph-name="bracketleft" unicode="[" horiz-adv-x="641" 
d="M575 -467h-419v1940h419v-68h-352v-1806h352v-66z" />
    <glyph glyph-name="bracketright" unicode="]" horiz-adv-x="641" 
d="M66 1473h419v-1940h-419v68h352v1806h-352v66z" />
    <glyph glyph-name="underscore" unicode="_" horiz-adv-x="1024" 
d="M-12 -256v105h1048v-105h-1048z" />
    <glyph glyph-name="Grave" unicode="`" horiz-adv-x="682" 
d="M150 1884h180l170 -309h-47z" />
    <glyph glyph-name="a" unicode="a" horiz-adv-x="1409" 
d="M440 719h398l-199 502zM1055 14q47 0 47 46q0 20 -12 47q-12 28 -15.5 36.5t-5.5 10.5l-213 524h-430l-223 -557q-11 -25 -17 -39t-6 -35q0 -33 49 -33v-14h-219v14q59 1 86 33t54 100l534 1348h25l526 -1302q0 -8 6 -17l8 -22q25 -62 57.5 -101t92.5 -39v-14h-344v14z
" />
    <glyph glyph-name="b" unicode="b" horiz-adv-x="1194" 
d="M473 764h-115v-467q0 -70 5.5 -110t48.5 -94t243 -54q126 0 195 41q119 71 119 277t-80.5 292.5t-153.5 100.5t-262 14zM358 1442v-647h179q182 0 241.5 103.5t59.5 207.5q0 215 -174 295q-91 41 -267 41h-39zM84 1473h383q129 0 199 -8.5t144 -42.5t128.5 -114.5
t54.5 -185.5q0 -188 -184 -295q133 -24 205 -94q116 -110 116 -291q0 -135 -71 -256.5t-168.5 -153.5t-239.5 -32h-569v14q52 0 74 15t27 46.5t5 106.5v1110q0 76 -4.5 106t-26.5 44.5t-73 15.5v15z" />
    <glyph glyph-name="c" unicode="c" horiz-adv-x="1579" 
d="M885 1456q-214 0 -366.5 -89.5t-229 -229.5t-76.5 -271t42 -274t133 -274t241.5 -216.5t337.5 -85.5t346.5 54t236.5 143l13 -4l-103 -158q-225 -49 -304 -61.5t-222 -12.5q-383 0 -586 150q-128 94 -201 247t-73 314t53.5 302t160 255t266.5 182t359 68q201 0 369 -69
q51 -21 57.5 -23t8.5 -4l55 -156h-14q-117 117 -249.5 165t-254.5 48z" />
    <glyph glyph-name="d" unicode="d" horiz-adv-x="1729" 
d="M580 1442h-226v-1143q0 -93 43.5 -176.5t354.5 -83.5q250 0 424 83.5t249.5 268.5t75.5 301t-26.5 210.5t-83 184.5t-221 222.5t-590.5 132.5zM78 1473h676q260 0 395 -36.5t223 -94.5t189.5 -187t101.5 -363t-150.5 -479.5t-355.5 -279t-387 -33.5h-692v14h18
q35 0 61.5 24.5t26.5 176.5v1073q0 108 -16 138.5t-90 31.5v15z" />
    <glyph glyph-name="e" unicode="e" 
d="M80 1456v17h926v-203h-15q-22 81 -35.5 110t-34.5 36t-81 7h-486v-661h451q53 0 76.5 8t27.5 41h15v-139h-15q-7 34 -27.5 41.5t-64.5 7.5h-463v-455q0 -102 19.5 -148t59 -57.5t126.5 -11.5h260q105 0 149.5 7t69 38.5t35.5 108.5h14v-203h-1007v14q55 4 79.5 21
t24.5 84v1190q0 89 -17 118t-87 29z" />
    <glyph glyph-name="f" unicode="f" horiz-adv-x="1024" 
d="M348 733v-588q0 -78 22 -104t91 -27v-14h-387v14q60 0 82 21t22 78v1212q0 104 -34 118.5t-70 14.5v15h932v-173h-15q0 7 -2 13q-17 70 -51.5 90t-114.5 20h-475v-649h443q52 0 75 8t27 41h14v-141h-14q-5 51 -66 51h-479z" />
    <glyph glyph-name="g" unicode="g" horiz-adv-x="1556" 
d="M1522 14v-14h-594q-177 0 -286 32.5t-193 86.5q-174 109 -277.5 278t-103.5 353q0 125 55.5 257t163.5 243t264.5 178t362.5 67t444 -96l61 -170h-14q-78 99 -213.5 163t-289.5 64t-277.5 -61t-250 -221t-126.5 -465q0 -233 93 -372.5t199 -199.5t228.5 -79t196.5 -19
l79 2q89 2 129.5 9.5t56 33.5t15.5 84v223q0 65 -26 87t-78 20v14h381v-14q-69 -1 -88 -29t-19 -92v-232q0 -70 18.5 -100.5t67.5 -30.5h21z" />
    <glyph glyph-name="h" unicode="h" horiz-adv-x="1516" 
d="M1161 735h-809v-567q0 -61 8 -108.5t99 -45.5v-14h-381v14q44 -2 74 16.5t30 84.5v1185q0 102 -15.5 128t-88.5 30v15h381v-15q-52 -2 -79.5 -19.5t-27.5 -86.5v-576h809v527q0 93 -15.5 124t-86.5 31v15h377v-15q-52 -1 -73.5 -14.5t-26.5 -42.5t-5 -98v-1131
q0 -64 7.5 -111t97.5 -47v-14h-377v14q46 2 66 12t28 42t8 106v561z" />
    <glyph glyph-name="i" unicode="i" horiz-adv-x="532" 
d="M463 1473v-15q-34 3 -72.5 -11.5t-38.5 -66.5q-2 -12 -2 -75v-1131q0 -70 7.5 -116t105.5 -44v-14h-393v14q53 2 75.5 14.5t28.5 41.5t6 102v1120q0 67 -8 119t-102 47v15h393z" />
    <glyph glyph-name="j" unicode="j" horiz-adv-x="532" 
d="M70 1473h395v-15q-77 -1 -95 -30.5t-18 -100.5v-1253q0 -256 -28 -340t-80 -135q-91 -93 -230 -93q-87 0 -180 31l2 17q32 -9 102 -9t129 47.5t87 129.5t28 243v1356q0 79 -18 108.5t-94 28.5v15z" />
    <glyph glyph-name="k" unicode="k" horiz-adv-x="1686" 
d="M1176 14q67 0 67 15t-55 55l-832 633v-547q0 -66 9.5 -114.5t113.5 -41.5v-14h-420v14q105 -5 116 39.5t11 110.5v1143q0 69 -8 99.5t-34 42t-85 9.5v15h422v-15q-81 3 -103 -27t-22 -116v-565l875 657q26 20 26 33q0 18 -59 18v15h318v-15q-122 -3 -234 -88l-762 -569
l760 -578q4 -2 32 -22q110 -79 197 -133t168 -54v-14h-501v14z" />
    <glyph glyph-name="l" unicode="l" 
d="M25 0v14q71 0 90.5 26t19.5 89v1206q0 79 -22.5 100t-89.5 23v15h395v-15q-97 2 -105 -40t-8 -93v-1034q0 -133 65 -187.5t218 -54.5h180q185 0 219 99.5t39 205.5h14v-354h-1015z" />
    <glyph glyph-name="m" unicode="m" horiz-adv-x="1812" 
d="M1659 1473v-15q-117 -5 -117 -123q0 -15 6 -69l154 -1116q15 -104 41.5 -118.5t62.5 -17.5v-14h-331v14q65 -2 65 64q0 16 -6 59l-150 1082h-4l-524 -1219h-10l-527 1217h-4l-149 -1088q-4 -18 -4 -50t12 -48.5t55 -16.5v-14h-225v14q41 2 64 10.5t36 104.5l168 1190
l-22 49q-41 90 -139 90v15h278l518 -1205l520 1205h232z" />
    <glyph glyph-name="n" unicode="n" horiz-adv-x="1642" 
d="M1288 1473h285v-15q-66 -2 -90.5 -27.5t-24.5 -107.5v-1341l-1175 1251v-1090q0 -81 18 -99t32 -21t56 -9v-14h-283v14q56 1 79.5 15t28.5 42.5t5 98.5v997q0 125 -35 210.5t-170 80.5v15h277l1104 -1176v1040q0 76 -25.5 98.5t-81.5 22.5v15z" />
    <glyph glyph-name="o" unicode="o" horiz-adv-x="1665" 
d="M1505 680q0 147 -72 289t-186.5 241.5t-246.5 153t-257 53.5t-259 -72.5t-219 -205t-85 -316.5t99.5 -365.5t262.5 -292t345 -110.5q116 0 229 47t199 127.5t138 192t52 258.5zM1597 820q0 -152 -55 -308.5t-163.5 -277.5t-265.5 -189t-331 -68q-327 0 -520.5 200
t-193.5 480q0 142 52 290.5t155 272t260 199.5t337 76t309.5 -50.5t223.5 -142t143 -211t49 -271.5z" />
    <glyph glyph-name="p" unicode="p" horiz-adv-x="1087" 
d="M82 1458v15h420q122 0 230 -19t199 -101.5t91 -263.5t-133.5 -271.5t-345.5 -86.5v14q86 0 158.5 36.5t114.5 108t42 170.5t-39.5 183.5t-115.5 132.5t-242 47h-105v-1261q0 -93 15 -114t35 -26.5t65 -7.5v-14h-389v14q48 2 76 20t28 75v1220q0 49 -8 89t-96 40z" />
    <glyph glyph-name="q" unicode="q" horiz-adv-x="1665" 
d="M1505 678q0 147 -72 290t-185.5 241.5t-246.5 153t-258 54.5t-259 -72.5t-219 -205t-85 -291.5t57 -300.5t158 -254t230 -176.5t253 -64t237.5 47t199.5 127.5t138 192t52 258.5zM1956 -395q-148 -70 -300 -70q-60 0 -169 30.5t-303 120.5t-416 291q-120 0 -244 34
t-250 153q-206 204 -206 491q0 196 93.5 390t281 322t450.5 128q315 0 509.5 -190.5t194.5 -463.5t-104 -444.5t-222 -262t-284 -130.5q13 -11 21 -14q23 -23 163 -118.5t244 -150t210.5 -84.5t184.5 -30t144 10z" />
    <glyph glyph-name="r" unicode="r" horiz-adv-x="1622" 
d="M356 1434v-691h154q45 0 110.5 11.5t98.5 29.5q63 35 106 102.5t43 169.5t-70 240t-321 138h-121zM80 1473h418q137 0 198.5 -4.5t114.5 -22.5q97 -29 155 -105.5t58 -175.5t-52 -208.5t-206 -194.5l113 -174q19 -35 122.5 -180.5t186.5 -241.5q38 -43 102 -81t131 -38
q67 -1 96 13t49 25t36 19l6 -20q-126 -98 -306 -98t-295 142t-182 244t-71 109l-148 228l-55 -2q-12 -2 -76 -2h-119v-564q0 -100 31 -112.5t74 -14.5v-14h-381v14q70 3 88 28.5t18 111.5v1171q0 107 -31.5 119t-74.5 14v15z" />
    <glyph glyph-name="s" unicode="s" horiz-adv-x="981" 
d="M506 1495q116 0 280 -41l70 -184l-12 -2q-1 2 -25 29q-134 151 -319 151q-103 0 -178 -42t-112.5 -110t-37.5 -140q0 -130 77.5 -184t217.5 -100q140 -45 231.5 -88.5t164.5 -134t73 -226.5t-65 -234.5t-162 -147.5q-39 -18 -133.5 -29.5t-131.5 -11.5h-393v428h15
q2 -95 38 -238t367 -143q216 0 299.5 99.5t83.5 196.5t-50 158.5t-121.5 96.5t-196.5 78t-176.5 69t-99.5 72t-81 118.5t-33 168.5t50.5 188t147 147.5t212.5 55.5z" />
    <glyph glyph-name="t" unicode="t" horiz-adv-x="1237" 
d="M1159 1386q0 28 -17.5 33.5t-51.5 5.5h-385v-1261q0 -89 15 -113t36 -30.5t65 -6.5v-14h-399v14q50 5 72.5 14t31.5 33.5t9 81.5v1282h-369q-55 0 -72.5 -6t-17.5 -25t8 -48h-14l-70 178h14q20 -36 38 -44t73 -7h979q59 0 83.5 7t37.5 44h14l-70 -178h-14q4 12 4 40z" />
    <glyph glyph-name="u" unicode="u" horiz-adv-x="1536" 
d="M1452 0h-278v227q-212 -237 -508 -237q-203 0 -339.5 115t-136.5 348v882q0 55 -10 90t-98 33v15h391v-15q-57 0 -85 -18.5t-28 -93.5v-809q0 -260 120.5 -365.5t269.5 -105.5q239 0 424 215v997q0 75 -9.5 127.5t-85.5 52.5h-14v15h387v-15q-59 -2 -84 -17.5t-25 -82.5
v-1200q0 -57 8 -101.5t101 -42.5v-14z" />
    <glyph glyph-name="v" unicode="v" horiz-adv-x="1409" 
d="M10 1458v15h340v-15q-45 3 -45 -35q0 -29 21 -67l442 -1100l440 1098q0 2 12 29t11 44q0 35 -53 31v15h221v-15q-50 0 -69.5 -18.5t-59.5 -87.5l-551 -1375h-19l-524 1297q-44 113 -80 148.5t-86 35.5z" />
    <glyph glyph-name="w" unicode="w" horiz-adv-x="2111" 
d="M1892 1458v15h215v-15q-79 -6 -117 -91q-16 -34 -22 -52l-475 -1338h-23l-407 1123h-4l-395 -1123h-23l-479 1315q-31 85 -64 126t-94 40v15h348v-15q-51 0 -51 -37q0 -27 16 -67l390 -1071h4l317 905l-31 86q-35 100 -73 142.5t-90 41.5v15h344v-15q-50 0 -50 -43
q0 -11 10 -39t11 -30l389 -1067h4l379 1071l23 71q0 37 -52 37z" />
    <glyph glyph-name="x" unicode="x" horiz-adv-x="1386" 
d="M1253 1473v-15q-69 5 -97.5 -40t-41.5 -58l-375 -529l449 -647q0 -1 10 -16q66 -100 104 -128t74 -26v-14h-366v14q47 -4 47 33q0 32 -17 51l-14 23q-2 0 -6 8l-385 555l-395 -551q0 -4 -7 -10l-16 -25q-27 -34 -27 -57q0 -29 50 -27v-14h-220v14q46 -2 94 48
q10 11 13 16l471 659l-440 635q0 6 -6 12q-18 32 -50.5 54.5t-66.5 19.5v15h371v-15q-60 0 -60 -33t37 -77l322 -463l346 485q2 2 16 24t14 40t-12 21t-39 3v15h223z" />
    <glyph glyph-name="y" unicode="y" horiz-adv-x="1174" 
d="M940 1473h221v-15q-41 -2 -69 -20t-62 -70l-360 -545v-676q0 -83 20.5 -107t91.5 -26v-14h-393v14q47 -2 80 14.5t33 84.5l-2 32v623l-361 598q-53 94 -127 92v15h348v-15q-49 0 -49 -37q1 -9 13 -34l12 -25l297 -490l325 494l5 4q26 43 26 55q0 33 -43 33h-6v15z" />
    <glyph glyph-name="z" unicode="z" horiz-adv-x="1450" 
d="M1411 231v-231h-1397l1143 1417h-766q-69 0 -103.5 -11.5t-50.5 -40.5t-26 -93h-14l8 201h1212l-1147 -1418h977q79 0 111 32t39 144h14z" />
    <glyph glyph-name="braceleft" unicode="{" horiz-adv-x="983" 
d="M465 -62q0 77 11 119q36 137 36 202t-55.5 130.5t-173.5 81.5v39q80 11 154.5 63.5t74.5 151.5q0 66 -25 154q-22 94 -22 167t43.5 156.5t129.5 144t204 76.5v-37q-105 -25 -166.5 -82.5t-61.5 -152.5q0 -44 25 -158q23 -79 23 -141t-21.5 -122.5t-86.5 -125t-189 -108.5
v-4q146 -53 221.5 -150.5t75.5 -185.5t-24 -173q-24 -86 -24 -153q0 -180 228 -238v-34q-119 16 -203 74.5t-129 143.5t-45 162z" />
    <glyph glyph-name="bar" unicode="|" horiz-adv-x="410" 
d="M133 1378h143v-1740h-143v1740z" />
    <glyph glyph-name="braceright" unicode="}" horiz-adv-x="983" 
d="M471 725q0 -40 22.5 -85.5t74.5 -82t132 -47.5v-39q-117 -16 -173 -81.5t-56 -119.5t11.5 -104t23.5 -104t12 -116q0 -132 -100.5 -247.5t-276.5 -140.5v36q228 55 228 236q0 44 -25 158q-22 78 -22 140t21.5 123.5t86 125.5t188.5 108v4q-146 53 -221 150t-75 187
t24 174t23 150q0 65 -42.5 134t-185.5 105v34q119 -16 203 -74.5t129 -143.5t45 -161t-14 -135q-14 -60 -23.5 -102t-9.5 -82z" />
    <glyph glyph-name="nbspace" unicode="&#xa0;" horiz-adv-x="596" 
 />
    <glyph glyph-name="exclamdown" unicode="&#xa1;" horiz-adv-x="342" 
d="M173 1495q46 0 77 -32.5t31 -76.5t-30.5 -76t-76.5 -32t-78.5 32.5t-32.5 75.5t32 76t78 33zM164 1044v39h18q2 -20 4 -100q25 -297 33 -563q4 -20 4 -78l4 -59q10 -144 17 -191t23.5 -60.5t64.5 -13.5v-18h-275l52 553q5 50 30 198t25 293z" />
    <glyph glyph-name="cent" unicode="&#xa2;" 
d="M587 918q-112 0 -202.5 -53t-135 -135t-44.5 -174t33.5 -184t87.5 -165t112 -111l338 787q-77 35 -189 35zM623 956q85 0 174 -26l84 192l34 -16l-79 -186q49 -20 82 -37q20 -63 40 -138l-14 -2q-58 81 -131 121l-342 -790q95 -49 217 -49q229 0 334 149l14 -6
q-29 -65 -67 -139q-157 -47 -304 -47q-148 0 -225 18l-110 -258l-39 14l110 254q-116 40 -215.5 132.5t-99.5 305.5t147.5 360.5t389.5 147.5z" />
    <glyph glyph-name="sterling" unicode="&#xa3;" horiz-adv-x="1130" 
d="M201 590h-170v43h170v321q0 297 138 420t305.5 123t336.5 -108l55 -201l-16 -2q-44 69 -92 127t-120 100.5t-178 42.5t-168 -75t-76.5 -157.5t-14.5 -152.5v-440h409v-41h-409v-318q0 -52 5.5 -87t49.5 -89.5t231 -54.5h166q59 0 99.5 6.5t106 53.5t67.5 253h12v-354
h-1034v12q52 3 89.5 14t37.5 107v457z" />
    <glyph glyph-name="yen" unicode="&#xa5;" horiz-adv-x="1174" 
d="M12 1473h348v-15q-49 0 -49 -37q1 -9 13 -34l12 -25l297 -490l325 494l5 4q26 43 26 55q0 33 -43 33h-6v15h221v-15q-41 -2 -69 -20t-62 -70l-360 -545v-10h424v-43h-424v-301h424v-43h-424v-279q0 -83 20.5 -107t91.5 -26v-14h-393v14q46 -2 78.5 14.5t32.5 84.5v313
h-422v43h422v301h-422v43h395l-334 553q-53 94 -127 92v15z" />
    <glyph glyph-name="Dieresis" unicode="&#xa8;" horiz-adv-x="682" 
d="M55 1670q0 39 27.5 66t65.5 27t65 -28t27 -65t-27 -65t-65 -28t-65.5 27t-27.5 66zM442 1670q0 39 27 66t66 27t65.5 -27.5t26.5 -65.5t-26.5 -65.5t-65.5 -27.5t-66 27t-27 66z" />
    <glyph glyph-name="copyright" unicode="&#xa9;" horiz-adv-x="1556" 
d="M756 1325q-153 0 -302 -86.5t-236 -235t-87 -303.5q0 -290 189.5 -479.5t457.5 -189.5q176 0 325 86.5t235.5 235.5t86.5 303t-50.5 273.5t-140 208.5t-207.5 138t-271 49zM778 1386q190 0 354 -94.5t259.5 -257t95.5 -355.5t-95.5 -356t-258.5 -258.5t-355 -95.5
t-354.5 95t-258 258.5t-95.5 355.5t95.5 356t259 258t353.5 94zM807 1090q-200 0 -261 -134t-61 -232t18 -186.5t91.5 -168.5t222.5 -80q195 0 311 162l37 -21q-138 -203 -383 -203q-204 0 -333.5 133t-129.5 317t138.5 321t359.5 137q70 -1 139 -23q68 -22 86 -22
t27.5 10.5t20.5 34.5h38l21 -281h-39q-75 236 -303 236z" />
    <glyph glyph-name="ordfeminine" unicode="&#xaa;" horiz-adv-x="618" 
d="M164 1006q0 -36 25 -55t57 -19q76 0 164 82v162l-54 -21q-114 -44 -153 -78.5t-39 -70.5zM518 1360v-383q0 -31 21 -31q13 0 36 21q15 10 22 10t7 -12q0 -42 -38.5 -77.5t-76.5 -35.5t-58.5 23.5t-20.5 62.5v29q-51 -51 -102.5 -82t-117.5 -31t-105.5 32.5t-39.5 86.5
q0 81 63.5 120t155.5 69t103.5 34.5t42.5 15.5v107q0 47 -27 79t-82 32q-90 0 -195 -115l-34 28q56 75 114 120.5t147 45.5t137 -44t48 -105z" />
    <glyph glyph-name="guillemotleft" unicode="&#xab;" horiz-adv-x="897" 
d="M844 1116l-197 -381l199 -377h-33l-352 379l348 379h35zM438 1116l-196 -381l198 -377h-32l-353 379l348 379h35z" />
    <glyph glyph-name="logicalnot" unicode="&#xac;" horiz-adv-x="1460" 
d="M31 477v113h1362v-590h-113v477h-1249z" />
    <glyph glyph-name="registered" unicode="&#xae;" horiz-adv-x="1556" 
d="M756 1325q-153 0 -302 -86.5t-236 -235t-87 -303.5q0 -290 189.5 -479.5t457.5 -189.5q176 0 325 86.5t235.5 235.5t86.5 303t-50.5 273.5t-140 208.5t-207.5 138t-271 49zM778 1386q190 0 354 -94.5t259.5 -257t95.5 -355.5t-95.5 -356t-258.5 -258.5t-355 -95.5
t-354.5 95t-258 258.5t-95.5 355.5t95.5 356t259 258t353.5 94zM623 696h30q99 0 176.5 40t77.5 147t-70 146.5t-121 39.5t-93 -14v-359zM385 1114h387q138 0 217.5 -62.5t79.5 -160.5q0 -166 -223 -223l211 -297q39 -54 64 -70t57 -18v-35h-185l-295 405h-75v-235
q0 -70 7.5 -102.5t110.5 -32.5v-35h-366v35q72 0 88 27t16 110v524q0 83 -13.5 108.5t-80.5 26.5v35z" />
    <glyph glyph-name="degree" unicode="&#xb0;" horiz-adv-x="819" 
d="M635 1096q0 60 -31 112t-83 82.5t-129 30.5t-142.5 -65.5t-65.5 -159.5t66 -160t144 -66t129.5 31t81.5 83t30 112zM717 1085q0 -72 -42 -143.5t-112.5 -112.5t-152.5 -41t-153.5 41.5t-113 112t-41.5 144.5q0 139 91 228t218 89q126 0 216 -90t90 -228z" />
    <glyph glyph-name="plusminus" unicode="&#xb1;" horiz-adv-x="1124" 
d="M1104 0h-1084v113h1084v-113zM20 836h486v485h112v-485h486v-113h-486v-485h-112v485h-486v113z" />
    <glyph glyph-name="twosuperior" unicode="&#xb2;" horiz-adv-x="662" 
d="M446 1274q0 94 -52 139t-116 45t-127 -38t-104 -103l-41 18q47 69 112.5 116.5t169.5 47.5t164.5 -30.5t91.5 -78.5t31 -104q0 -106 -99.5 -211.5t-307.5 -269.5v-4h344q47 0 65 7.5t48 43.5h32l-45 -131h-583l-2 14l14 13q112 88 197 166t146.5 172t61.5 188z" />
    <glyph glyph-name="threesuperior" unicode="&#xb3;" horiz-adv-x="682" 
d="M297 711q-136 0 -266 104v45q112 -76 162.5 -93t100.5 -17t126 35.5t76 143.5t-71 143.5t-127 35.5t-91 -8v35q1 1 65 17t125.5 52t61.5 121t-51 112t-93 27q-113 0 -202 -127q-1 0 -5 -4t-4 -6h-32l34 111q116 61 241 61q126 0 181.5 -47t55.5 -102q0 -104 -164 -176v-5
q100 -17 150.5 -78.5t50.5 -134.5q0 -109 -94 -177t-230 -68z" />
    <glyph glyph-name="Acute" unicode="&#xb4;" horiz-adv-x="682" 
d="M352 1884h180l-303 -309h-47z" />
    <glyph glyph-name="mu" unicode="&#xb5;" horiz-adv-x="1180" 
d="M125 1024h176v-682q0 -169 107 -217q87 -37 167 -2q40 18 85.5 56.5t64.5 82.5v762h176v-786q0 -95 48 -144t108 -16q39 23 49.5 72t13.5 57h41q-18 -77 -42.5 -125.5t-93.5 -85.5t-126 -30.5t-85 28.5t-47.5 47.5t-22.5 36.5l-17 88q-49 -73 -137 -137t-199 -64
q-74 0 -126 43.5t-66 54.5v-47q3 -68 28 -148t33 -124q17 -94 -15 -147.5t-79 -53.5t-78.5 53.5t-19.5 123.5t34.5 147t22.5 149v1008z" />
    <glyph glyph-name="Cedilla" unicode="&#xb8;" horiz-adv-x="682" 
d="M520 -233q0 -62 -45 -112.5t-126.5 -76.5t-186.5 -20v41q157 4 205.5 46.5t48.5 84.5q0 97 -158 106q98 141 117 184h53l-53 -96q145 -46 145 -157z" />
    <glyph glyph-name="onesuperior" unicode="&#xb9;" horiz-adv-x="319" 
d="M274 741h23v-20h-268v20q40 0 54 3t18.5 15t4.5 42v565q0 26 -2.5 34.5t-13 9t-30.5 -7.5t-25 -13l-2 24l166 86h24l-2 -704q0 -34 7.5 -44t45.5 -10z" />
    <glyph glyph-name="ordmasculine" unicode="&#xba;" horiz-adv-x="705" 
d="M319 1442q-71 0 -121.5 -58.5t-50.5 -164.5t71 -205t165 -99q43 0 108.5 41.5t65.5 169.5q0 79 -31.5 153t-83.5 118.5t-123 44.5zM346 1509q74 0 133 -27t101 -74.5t64 -106t22 -161t-91 -199.5t-219 -97q-90 0 -162.5 47.5t-113.5 125.5t-41 171t46 167.5t116.5 114
t144.5 39.5z" />
    <glyph glyph-name="guillemotright" unicode="&#xbb;" horiz-adv-x="897" 
d="M53 358l197 381l-199 377h33l352 -379l-348 -379h-35zM459 358l196 381l-198 377h32l353 -379l-348 -379h-35z" />
    <glyph glyph-name="questiondown" unicode="&#xbf;" horiz-adv-x="725" 
d="M440 1278q-45 0 -76.5 32t-31.5 76t32 76.5t76 32.5t76.5 -31.5t32.5 -76.5t-32 -77t-77 -32zM152 276q0 -63 30.5 -123.5t87.5 -98.5t140 -38t159.5 48.5t114.5 140.5h16l-47 -174q-130 -54 -245 -54q-190 0 -291 104t-101 260t85 233.5t165 107.5t104.5 44.5t31 31.5
t10.5 61l20 268h21l20 -516q-149 -25 -235 -100t-86 -195z" />
    <glyph glyph-name="Agrave" unicode="&#xc0;" horiz-adv-x="1409" 
d="M515 1884h180l170 -309h-47zM440 719h398l-199 502zM1055 14q47 0 47 46q0 20 -12 47q-12 28 -15.5 36.5t-5.5 10.5l-213 524h-430l-223 -557q-11 -25 -17 -39t-6 -35q0 -33 49 -33v-14h-219v14q59 1 86 33t54 100l534 1348h25l526 -1302q0 -8 6 -17l8 -22
q25 -62 57.5 -101t92.5 -39v-14h-344v14z" />
    <glyph glyph-name="Aacute" unicode="&#xc1;" horiz-adv-x="1409" 
d="M440 719h398l-199 502zM1055 14q47 0 47 46q0 20 -12 47q-12 29 -16 37q-3 8 -5 10l-213 524h-430l-223 -557q-11 -25 -17 -39t-6 -35q0 -33 49 -33v-14h-219v14q59 1 86 33t54 100l534 1348h25l526 -1302q0 -8 6 -17l8 -22q25 -62 57 -101t93 -39v-14h-344v14zM717 1884
h180l-303 -309h-47z" />
    <glyph glyph-name="Acircumflex" unicode="&#xc2;" horiz-adv-x="1409" 
d="M440 719h398l-199 502zM1055 14q47 0 47 46q0 20 -12 47q-12 29 -16 37q-3 8 -5 10l-213 524h-430l-223 -557q-11 -25 -17 -39t-6 -35q0 -33 49 -33v-14h-219v14q59 1 86 33t54 100l534 1348h25l526 -1302q0 -8 6 -17l8 -22q25 -62 57 -101t93 -39v-14h-344v14zM760 1884
l264 -309h-45l-272 192l-272 -192h-47l264 309h108z" />
    <glyph glyph-name="Atilde" unicode="&#xc3;" horiz-adv-x="1409" 
d="M440 719h398l-199 502zM1055 14q47 0 47 46q0 20 -12 47q-12 29 -16 37q-3 8 -5 10l-213 524h-430l-223 -557q-11 -25 -17 -39t-6 -35q0 -33 49 -33v-14h-219v14q59 1 86 33t54 100l534 1348h25l526 -1302q0 -8 6 -17l8 -22q25 -62 57 -101t93 -39v-14h-344v14zM574 1790
q37 0 74 -14q38 -14 106 -48t86 -40q18 -7 49 -7q95 0 119 109h41q2 -126 -110 -186q-51 -28 -103 -27q-52 0 -82 11q-30 12 -95 44q-63 32 -91 43t-61 11t-65 -26t-36 -83h-43q-3 150 135 199q39 14 76 14z" />
    <glyph glyph-name="Adieresis" unicode="&#xc4;" horiz-adv-x="1409" 
d="M440 719h398l-199 502zM1055 14q47 0 47 46q0 20 -12 47q-12 29 -16 37q-3 8 -5 10l-213 524h-430l-223 -557q-11 -25 -17 -39t-6 -35q0 -33 49 -33v-14h-219v14q59 1 86 33t54 100l534 1348h25l526 -1302q0 -8 6 -17l8 -22q25 -62 57 -101t93 -39v-14h-344v14zM420 1670
q0 39 27 66t65 27t66 -28q27 -28 27 -65t-27 -65q-28 -28 -66 -28t-65 27t-27 66zM807 1670q0 39 27 66t66 27q40 1 66 -27t26 -66t-26 -66t-66 -27q-39 0 -66 27t-27 66z" />
    <glyph glyph-name="Aring" unicode="&#xc5;" horiz-adv-x="1409" 
d="M440 719h398l-199 502zM1055 14q47 0 47 46q0 20 -12 47q-12 29 -16 37q-3 8 -5 10l-213 524h-430l-223 -557q-11 -25 -17 -39t-6 -35q0 -33 49 -33v-14h-219v14q59 1 86 33t54 100l534 1348h25l526 -1302q0 -8 6 -17l8 -22q25 -62 57 -101t93 -39v-14h-344v14zM588 1740
q0 -48 35 -83t85 -35t82 36q34 36 34 82t-34 80t-82 35q-50 0 -85 -34q-35 -33 -35 -81zM543 1728q1 58 23 94t60 58t93 21q55 1 103 -47t47 -116q0 -68 -47 -115q-47 -48 -115 -48t-116 48t-48 105z" />
    <glyph glyph-name="AE" unicode="&#xc6;" horiz-adv-x="1772" 
d="M854 766v602h-4l-309 -602h313zM854 725h-336l-321 -621q-1 -2 -11 -20t-10 -33q0 -39 49 -35v-16h-217v16q69 4 109 70q6 17 13 26q8 10 9 12t2 3l701 1346h827v-205h-14q-18 77 -34 108.5t-39 39t-77 7.5h-481v-657h438q80 0 94.5 12.5t18.5 36.5h14v-141h-14
q-6 32 -24.5 39.5t-61.5 9.5l-53 2h-412v-385q0 -120 12 -181.5t48.5 -85.5t113.5 -24h322q75 0 138 12t81 138h14v-199h-1003v14q68 -3 84 29t18 111l2 112v459z" />
    <glyph glyph-name="Ccedilla" unicode="&#xc7;" horiz-adv-x="1579" 
d="M989 -233q0 -62 -71 -141.5t-285 -67.5v41q156 4 204 46t48 85q0 98 -158 106q41 58 96 144q-312 21 -479 151q-122 94 -196 245t-74 312t53.5 302t160 255t266.5 182t336 68t267.5 -29t133.5 -45t48.5 -18t8.5 -4l55 -156h-14q-74 77 -201 145t-296 68
q-323 0 -501 -184.5t-178 -427.5q0 -109 42 -252t133 -274t241.5 -216.5t337.5 -85.5t347.5 54t235.5 143l13 -4l-103 -158q-209 -46 -316.5 -61.5t-269.5 -9.5l-28 -56q143 -46 143 -157z" />
    <glyph glyph-name="Egrave" unicode="&#xc8;" 
d="M80 1456v17h926v-203h-15q-21 81 -35 110t-35 36t-81 7h-486v-661h451q53 0 77 8t27 41h15v-139h-15q-7 34 -27 42t-65 7h-463v-455q0 -102 20 -148t58 -58q40 -12 127 -11h260q105 0 149 7q44 6 70 38q24 32 35 109h14v-203h-1007v14q56 4 80 21t24 84v1190
q0 89 -17 118t-87 29zM365 1884h180l170 -309h-47z" />
    <glyph glyph-name="Eacute" unicode="&#xc9;" 
d="M80 1456v17h926v-203h-15q-21 81 -35 110t-35 36t-81 7h-486v-661h451q53 0 77 8t27 41h15v-139h-15q-7 34 -27 42t-65 7h-463v-455q0 -102 20 -148t58 -58q40 -12 127 -11h260q105 0 149 7q44 6 70 38q24 32 35 109h14v-203h-1007v14q56 4 80 21t24 84v1190
q0 89 -17 118t-87 29zM608 1884h180l-303 -309h-47z" />
    <glyph glyph-name="Ecircumflex" unicode="&#xca;" 
d="M80 1456v17h926v-203h-15q-21 81 -35 110t-35 36t-81 7h-486v-661h451q53 0 77 8t27 41h15v-139h-15q-7 34 -27 42t-65 7h-463v-455q0 -102 20 -148t58 -58q40 -12 127 -11h260q105 0 149 7q44 6 70 38q24 32 35 109h14v-203h-1007v14q56 4 80 21t24 84v1190
q0 89 -17 118t-87 29zM610 1884l264 -309h-45l-272 192l-272 -192h-47l264 309h108z" />
    <glyph glyph-name="Edieresis" unicode="&#xcb;" 
d="M80 1456v17h926v-203h-15q-21 81 -35 110t-35 36t-81 7h-486v-661h451q53 0 77 8t27 41h15v-139h-15q-7 34 -27 42t-65 7h-463v-455q0 -102 20 -148t58 -58q40 -12 127 -11h260q105 0 149 7q44 6 70 38q24 32 35 109h14v-203h-1007v14q56 4 80 21t24 84v1190
q0 89 -17 118t-87 29zM270 1670q0 39 27 66t65 27t66 -28q27 -28 27 -65t-27 -65q-28 -28 -66 -28t-65 27t-27 66zM657 1670q0 39 27 66t66 27q40 1 66 -27t26 -66t-26 -66t-66 -27q-39 0 -66 27t-27 66z" />
    <glyph glyph-name="Igrave" unicode="&#xcc;" horiz-adv-x="532" 
d="M463 1473v-15q-35 2 -73 -12t-38 -66q-2 -12 -2 -75v-1131q0 -70 5 -100q10 -61 108 -60v-14h-393v14q54 2 76 14t28 42q6 29 6 102v1120q0 67 -5 100q-11 71 -105 66v15h393zM76 1884h180l170 -309h-47z" />
    <glyph glyph-name="Iacute" unicode="&#xcd;" horiz-adv-x="532" 
d="M463 1473v-15q-35 2 -73 -12t-38 -66q-2 -12 -2 -75v-1131q0 -70 5 -100q10 -61 108 -60v-14h-393v14q54 2 76 14t28 42q6 29 6 102v1120q0 67 -5 100q-11 71 -105 66v15h393zM278 1884h180l-303 -309h-47z" />
    <glyph glyph-name="Icircumflex" unicode="&#xce;" horiz-adv-x="532" 
d="M463 1473v-15q-35 2 -73 -12t-38 -66q-2 -12 -2 -75v-1131q0 -70 5 -100q10 -61 108 -60v-14h-393v14q54 2 76 14t28 42q6 29 6 102v1120q0 67 -5 100q-11 71 -105 66v15h393zM321 1884l264 -309h-45l-272 192l-272 -192h-47l264 309h108z" />
    <glyph glyph-name="Idieresis" unicode="&#xcf;" horiz-adv-x="532" 
d="M463 1473v-15q-35 2 -73 -12t-38 -66q-2 -12 -2 -75v-1131q0 -70 5 -100q10 -61 108 -60v-14h-393v14q54 2 76 14t28 42q6 29 6 102v1120q0 67 -5 100q-11 71 -105 66v15h393zM-19 1670q0 39 27 66q28 27 66 27t65 -28t27 -65t-27 -65t-65 -28t-66 27q-27 27 -27 66z
M368 1670q0 39 27 66t66 27q39 1 65 -27t27 -66q-1 -38 -27 -66t-65 -27q-39 0 -66 27t-27 66z" />
    <glyph glyph-name="Eth" unicode="&#xd0;" horiz-adv-x="1729" 
d="M885 723h-531v-424q0 -93 43.5 -176.5t354.5 -83.5q253 0 425 84t248 268.5t76 300.5t-26.5 210.5t-83 184.5t-221 222.5t-590.5 132.5h-226v-678h531v-41zM184 723h-131v41h131v524q0 78 -4.5 109.5t-25.5 45t-74 15.5v15h674q260 0 395 -36.5t223 -94.5t189.5 -187
t101.5 -363t-150.5 -479.5t-355.5 -279t-387 -33.5h-692v14q54 5 74.5 19.5t26 49.5t5.5 132v508z" />
    <glyph glyph-name="Ntilde" unicode="&#xd1;" horiz-adv-x="1642" 
d="M1288 1473h285v-15q-67 -2 -91 -28t-24 -107v-1341l-1175 1251v-1090q0 -81 18 -99t32 -21t56 -9v-14h-283v14q56 1 80 15q24 15 28 43q5 28 5 98v997q0 125 -35 211t-170 80v15h277l1104 -1176v1040q1 77 -25 99t-82 22v15zM690 1790q37 0 74 -14q38 -14 106 -48t86 -40
q18 -7 49 -7q95 0 119 109h41q2 -126 -110 -186q-51 -28 -103 -27q-52 0 -82 11q-30 12 -95 44q-63 32 -91 43t-61 11t-65 -26t-36 -83h-43q-3 150 135 199q39 14 76 14z" />
    <glyph glyph-name="Ograve" unicode="&#xd2;" horiz-adv-x="1665" 
d="M1505 680q0 147 -72 289q-73 141 -187 241t-246 154t-257 53t-259 -73t-219 -204t-85 -317q0 -183 100 -365t262 -292q163 -110 345 -111q116 0 229 47q113 48 199 128t138 192t52 258zM1597 820q0 -152 -55 -309q-56 -156 -164 -277t-265 -189t-331 -68q-327 0 -520 200
q-194 200 -194 480q0 143 52 291t155 272t260 199q157 76 337 76q180 -1 310 -51t223 -142q94 -92 143 -210q49 -120 49 -272zM642 1884h180l170 -309h-47z" />
    <glyph glyph-name="Oacute" unicode="&#xd3;" horiz-adv-x="1665" 
d="M1505 680q0 147 -72 289q-73 141 -187 241t-246 154t-257 53t-259 -73t-219 -204t-85 -317q0 -183 100 -365t262 -292q163 -110 345 -111q116 0 229 47q113 48 199 128t138 192t52 258zM1597 820q0 -152 -55 -309q-56 -156 -164 -277t-265 -189t-331 -68q-327 0 -520 200
q-194 200 -194 480q0 143 52 291t155 272t260 199q157 76 337 76q180 -1 310 -51t223 -142q94 -92 143 -210q49 -120 49 -272zM844 1884h180l-303 -309h-47z" />
    <glyph glyph-name="Ocircumflex" unicode="&#xd4;" horiz-adv-x="1665" 
d="M1505 680q0 147 -72 289q-73 141 -187 241t-246 154t-257 53t-259 -73t-219 -204t-85 -317q0 -183 100 -365t262 -292q163 -110 345 -111q116 0 229 47q113 48 199 128t138 192t52 258zM1597 820q0 -152 -55 -309q-56 -156 -164 -277t-265 -189t-331 -68q-327 0 -520 200
q-194 200 -194 480q0 143 52 291t155 272t260 199q157 76 337 76q180 -1 310 -51t223 -142q94 -92 143 -210q49 -120 49 -272zM887 1884l264 -309h-45l-272 192l-272 -192h-47l264 309h108z" />
    <glyph glyph-name="Otilde" unicode="&#xd5;" horiz-adv-x="1665" 
d="M1505 680q0 147 -72 289q-73 141 -187 241t-246 154t-257 53t-259 -73t-219 -204t-85 -317q0 -183 100 -365t262 -292q163 -110 345 -111q116 0 229 47q113 48 199 128t138 192t52 258zM1597 820q0 -152 -55 -309q-56 -156 -164 -277t-265 -189t-331 -68q-327 0 -520 200
q-194 200 -194 480q0 143 52 291t155 272t260 199q157 76 337 76q180 -1 310 -51t223 -142q94 -92 143 -210q49 -120 49 -272zM701 1790q37 0 74 -14t105 -48t88 -40q18 -7 48 -7q95 0 119 109h41q2 -126 -110 -186q-52 -28 -104 -27q-52 0 -82 11q-30 12 -94 44t-92 43
t-60 11q-34 0 -66 -26t-35 -83h-43q-3 150 135 199q39 14 76 14z" />
    <glyph glyph-name="Odieresis" unicode="&#xd6;" horiz-adv-x="1665" 
d="M1505 680q0 147 -72 289q-73 141 -187 241t-246 154t-257 53t-259 -73t-219 -204t-85 -317q0 -183 100 -365t262 -292q163 -110 345 -111q116 0 229 47q113 48 199 128t138 192t52 258zM1597 820q0 -152 -55 -309q-56 -156 -164 -277t-265 -189t-331 -68q-327 0 -520 200
q-194 200 -194 480q0 143 52 291t155 272t260 199q157 76 337 76q180 -1 310 -51t223 -142q94 -92 143 -210q49 -120 49 -272zM547 1670q0 39 27 66q28 27 66 27t65 -28t27 -65t-27 -65t-65 -28t-66 27q-27 27 -27 66zM934 1670q0 39 27 66t66 27q39 1 65 -27t27 -66
q-1 -38 -27 -66t-65 -27q-39 0 -66 27t-27 66z" />
    <glyph glyph-name="Oslash" unicode="&#xd8;" horiz-adv-x="1665" 
d="M889 51q148 0 291 77t234 218t91 323t-77.5 312.5t-165.5 212.5l-830 -938q203 -205 457 -205zM756 1417q-100 0 -202 -40t-187 -116t-136 -184.5t-51 -254.5t64.5 -291t158.5 -248l830 936q-27 27 -111.5 80t-175 85.5t-190.5 32.5zM287 152q-219 191 -219 526
q0 122 52 270t155.5 272.5t260.5 200.5t357 76q268 0 457 -145l129 145l28 -24l-129 -146q73 -63 146 -183t73 -295t-53.5 -330.5t-158 -277.5t-263 -194t-358.5 -72q-257 0 -442 148q-1 1 -3 2t-2 2l-133 -152l-30 25z" />
    <glyph glyph-name="Ugrave" unicode="&#xd9;" horiz-adv-x="1536" 
d="M1452 0h-278v227q-212 -237 -508 -237q-203 0 -340 115q-136 115 -136 348v882q0 55 -7 80q-13 45 -101 43v15h391v-15q-57 0 -85 -18t-28 -94v-809q0 -260 130 -374q111 -97 260 -97q239 0 424 215v997q0 74 -6 110q-13 70 -89 70h-14v15h387v-15q-59 -2 -84 -18
t-25 -82v-1200q0 -57 5 -85q11 -61 104 -59v-14zM578 1884h180l170 -309h-47z" />
    <glyph glyph-name="Uacute" unicode="&#xda;" horiz-adv-x="1536" 
d="M1452 0h-278v227q-212 -237 -508 -237q-203 0 -340 115q-136 115 -136 348v882q0 55 -7 80q-13 45 -101 43v15h391v-15q-57 0 -85 -18t-28 -94v-809q0 -260 130 -374q111 -97 260 -97q239 0 424 215v997q0 74 -6 110q-13 70 -89 70h-14v15h387v-15q-59 -2 -84 -18
t-25 -82v-1200q0 -57 5 -85q11 -61 104 -59v-14zM780 1884h180l-303 -309h-47z" />
    <glyph glyph-name="Ucircumflex" unicode="&#xdb;" horiz-adv-x="1536" 
d="M1452 0h-278v227q-212 -237 -508 -237q-203 0 -340 115q-136 115 -136 348v882q0 55 -7 80q-13 45 -101 43v15h391v-15q-57 0 -85 -18t-28 -94v-809q0 -260 130 -374q111 -97 260 -97q239 0 424 215v997q0 74 -6 110q-13 70 -89 70h-14v15h387v-15q-59 -2 -84 -18
t-25 -82v-1200q0 -57 5 -85q11 -61 104 -59v-14zM823 1884l264 -309h-45l-272 192l-272 -192h-47l264 309h108z" />
    <glyph glyph-name="Udieresis" unicode="&#xdc;" horiz-adv-x="1536" 
d="M1452 0h-278v227q-212 -237 -508 -237q-203 0 -340 115q-136 115 -136 348v882q0 55 -7 80q-13 45 -101 43v15h391v-15q-57 0 -85 -18t-28 -94v-809q0 -260 130 -374q111 -97 260 -97q239 0 424 215v997q0 74 -6 110q-13 70 -89 70h-14v15h387v-15q-59 -2 -84 -18
t-25 -82v-1200q0 -57 5 -85q11 -61 104 -59v-14zM483 1670q0 39 27 66q28 27 66 27t65 -28t27 -65t-27 -65t-65 -28t-66 27q-27 27 -27 66zM870 1670q0 39 27 66t66 27q39 1 65 -27t27 -66q-1 -38 -27 -66t-65 -27q-39 0 -66 27t-27 66z" />
    <glyph glyph-name="Yacute" unicode="&#xdd;" horiz-adv-x="1174" 
d="M940 1473h221v-15q-41 -2 -69 -20t-62 -70l-360 -545v-676q0 -83 20 -107t92 -26v-14h-393v14q47 -2 80 14t33 85l-2 32v623l-361 598q-53 94 -127 92v15h348v-15q-49 0 -49 -37q1 -9 13 -34l12 -25l297 -490l325 494l5 4q26 43 26 55q0 33 -43 33h-6v15zM598 1884h180
l-303 -309h-47z" />
    <glyph glyph-name="Thorn" unicode="&#xde;" horiz-adv-x="1087" 
d="M356 1081v-690h154q44 0 110.5 12.5t113.5 38.5t90.5 95t43.5 171t-49.5 196t-127.5 135.5t-214 41.5h-121zM463 1473v-15q-60 -2 -83.5 -23.5t-23.5 -101.5v-213h201q199 0 332 -64.5t133 -258.5q0 -161 -118 -281t-216 -142t-213 -22h-119v-211q0 -100 32 -112.5
t75 -14.5v-14h-381v14q84 2 94 40.5t10 99.5v1171q0 86 -22 108.5t-82 24.5v15h381z" />
    <glyph glyph-name="germandbls" unicode="&#xdf;" horiz-adv-x="1962" 
d="M506 1495q116 0 280 -41l70 -184l-12 -2q-1 2 -25 29q-134 151 -319 151q-103 0 -178 -42q-74 -42 -112 -110t-38 -140q0 -130 99 -200q56 -39 196 -84q139 -44 231 -88t165 -134t73 -227t-65 -235t-162 -147q-39 -17 -133 -29t-132 -12h-393v428h15q2 -94 18 -160
q56 -220 387 -221q216 0 313 116q70 83 70 180t-50 159t-122 96q-72 35 -196 78t-176 69t-100 72q-48 47 -81 119t-33 168t50 188t148 148q96 56 212 55zM1488 1495q116 0 279 -41l70 -184l-12 -2q-1 2 -25 29q-134 151 -319 151q-103 0 -178 -42t-113 -110t-37 -140
q0 -130 99 -200q56 -39 196 -84q140 -44 232 -88t164 -134q73 -90 73 -227t-65 -235t-162 -147q-40 -17 -134 -29t-131 -12h-393v428h15q3 -94 19 -160q56 -220 386 -221q216 0 313 116q70 83 70 180t-50 159q-49 62 -121 96q-72 35 -197 78t-177 69t-99 72q-48 47 -81 119
t-33 168q1 96 51 188t147 148t213 55z" />
    <glyph glyph-name="agrave" unicode="&#xe0;" horiz-adv-x="1409" 
d="M515 1884h180l170 -309h-47zM440 719h398l-199 502zM1055 14q47 0 47 46q0 20 -12 47q-12 28 -15.5 36.5t-5.5 10.5l-213 524h-430l-223 -557q-11 -25 -17 -39t-6 -35q0 -33 49 -33v-14h-219v14q59 1 86 33t54 100l534 1348h25l526 -1302q0 -8 6 -17l8 -22
q25 -62 57.5 -101t92.5 -39v-14h-344v14z" />
    <glyph glyph-name="aacute" unicode="&#xe1;" horiz-adv-x="1409" 
d="M440 719h398l-199 502zM1055 14q47 0 47 46q0 20 -12 47q-12 29 -16 37q-3 8 -5 10l-213 524h-430l-223 -557q-11 -25 -17 -39t-6 -35q0 -33 49 -33v-14h-219v14q59 1 86 33t54 100l534 1348h25l526 -1302q0 -8 6 -17l8 -22q25 -62 57 -101t93 -39v-14h-344v14zM717 1884
h180l-303 -309h-47z" />
    <glyph glyph-name="acircumflex" unicode="&#xe2;" horiz-adv-x="1409" 
d="M440 719h398l-199 502zM1055 14q47 0 47 46q0 20 -12 47q-12 29 -16 37q-3 8 -5 10l-213 524h-430l-223 -557q-11 -25 -17 -39t-6 -35q0 -33 49 -33v-14h-219v14q59 1 86 33t54 100l534 1348h25l526 -1302q0 -8 6 -17l8 -22q25 -62 57 -101t93 -39v-14h-344v14zM760 1884
l264 -309h-45l-272 192l-272 -192h-47l264 309h108z" />
    <glyph glyph-name="atilde" unicode="&#xe3;" horiz-adv-x="1409" 
d="M440 719h398l-199 502zM1055 14q47 0 47 46q0 20 -12 47q-12 29 -16 37q-3 8 -5 10l-213 524h-430l-223 -557q-11 -25 -17 -39t-6 -35q0 -33 49 -33v-14h-219v14q59 1 86 33t54 100l534 1348h25l526 -1302q0 -8 6 -17l8 -22q25 -62 57 -101t93 -39v-14h-344v14zM574 1790
q37 0 74 -14q38 -14 106 -48t86 -40q18 -7 49 -7q95 0 119 109h41q2 -126 -110 -186q-51 -28 -103 -27q-52 0 -82 11q-30 12 -95 44q-63 32 -91 43t-61 11t-65 -26t-36 -83h-43q-3 150 135 199q39 14 76 14z" />
    <glyph glyph-name="adieresis" unicode="&#xe4;" horiz-adv-x="1409" 
d="M440 719h398l-199 502zM1055 14q47 0 47 46q0 20 -12 47q-12 29 -16 37q-3 8 -5 10l-213 524h-430l-223 -557q-11 -25 -17 -39t-6 -35q0 -33 49 -33v-14h-219v14q59 1 86 33t54 100l534 1348h25l526 -1302q0 -8 6 -17l8 -22q25 -62 57 -101t93 -39v-14h-344v14zM420 1670
q0 39 27 66t65 27t66 -28q27 -28 27 -65t-27 -65q-28 -28 -66 -28t-65 27t-27 66zM807 1670q0 39 27 66t66 27q40 1 66 -27t26 -66t-26 -66t-66 -27q-39 0 -66 27t-27 66z" />
    <glyph glyph-name="aring" unicode="&#xe5;" horiz-adv-x="1409" 
d="M440 719h398l-199 502zM1055 14q47 0 47 46q0 20 -12 47q-12 29 -16 37q-3 8 -5 10l-213 524h-430l-223 -557q-11 -25 -17 -39t-6 -35q0 -33 49 -33v-14h-219v14q59 1 86 33t54 100l534 1348h25l526 -1302q0 -8 6 -17l8 -22q25 -62 57 -101t93 -39v-14h-344v14zM588 1740
q0 -48 35 -83t85 -35t82 36q34 36 34 82t-34 80t-82 35q-50 0 -85 -34q-35 -33 -35 -81zM543 1728q1 58 23 94t60 58t93 21q55 1 103 -47t47 -116q0 -68 -47 -115q-47 -48 -115 -48t-116 48t-48 105z" />
    <glyph glyph-name="ae" unicode="&#xe6;" horiz-adv-x="1772" 
d="M854 766v602h-4l-309 -602h313zM854 725h-336l-321 -621q-1 -2 -11 -20t-10 -33q0 -39 49 -35v-16h-217v16q69 4 109 70q6 17 13 26q8 10 9 12t2 3l701 1346h827v-205h-14q-18 77 -34 108.5t-39 39t-77 7.5h-481v-657h438q80 0 94.5 12.5t18.5 36.5h14v-141h-14
q-6 32 -24.5 39.5t-61.5 9.5l-53 2h-412v-385q0 -120 12 -181.5t48.5 -85.5t113.5 -24h322q75 0 138 12t81 138h14v-199h-1003v14q68 -3 84 29t18 111l2 112v459z" />
    <glyph glyph-name="ccedilla" unicode="&#xe7;" horiz-adv-x="1579" 
d="M989 -233q0 -62 -71 -141.5t-285 -67.5v41q156 4 204 46t48 85q0 98 -158 106q41 58 96 144q-312 21 -479 151q-122 94 -196 245t-74 312t53.5 302t160 255t266.5 182t336 68t267.5 -29t133.5 -45t48.5 -18t8.5 -4l55 -156h-14q-74 77 -201 145t-296 68
q-323 0 -501 -184.5t-178 -427.5q0 -109 42 -252t133 -274t241.5 -216.5t337.5 -85.5t347.5 54t235.5 143l13 -4l-103 -158q-209 -46 -316.5 -61.5t-269.5 -9.5l-28 -56q143 -46 143 -157z" />
    <glyph glyph-name="egrave" unicode="&#xe8;" 
d="M80 1456v17h926v-203h-15q-21 81 -35 110t-35 36t-81 7h-486v-661h451q53 0 77 8t27 41h15v-139h-15q-7 34 -27 42t-65 7h-463v-455q0 -102 20 -148t58 -58q40 -12 127 -11h260q105 0 149 7q44 6 70 38q24 32 35 109h14v-203h-1007v14q56 4 80 21t24 84v1190
q0 89 -17 118t-87 29zM365 1884h180l170 -309h-47z" />
    <glyph glyph-name="eacute" unicode="&#xe9;" 
d="M80 1456v17h926v-203h-15q-21 81 -35 110t-35 36t-81 7h-486v-661h451q53 0 77 8t27 41h15v-139h-15q-7 34 -27 42t-65 7h-463v-455q0 -102 20 -148t58 -58q40 -12 127 -11h260q105 0 149 7q44 6 70 38q24 32 35 109h14v-203h-1007v14q56 4 80 21t24 84v1190
q0 89 -17 118t-87 29zM608 1884h180l-303 -309h-47z" />
    <glyph glyph-name="ecircumflex" unicode="&#xea;" 
d="M80 1456v17h926v-203h-15q-21 81 -35 110t-35 36t-81 7h-486v-661h451q53 0 77 8t27 41h15v-139h-15q-7 34 -27 42t-65 7h-463v-455q0 -102 20 -148t58 -58q40 -12 127 -11h260q105 0 149 7q44 6 70 38q24 32 35 109h14v-203h-1007v14q56 4 80 21t24 84v1190
q0 89 -17 118t-87 29zM610 1884l264 -309h-45l-272 192l-272 -192h-47l264 309h108z" />
    <glyph glyph-name="edieresis" unicode="&#xeb;" 
d="M80 1456v17h926v-203h-15q-21 81 -35 110t-35 36t-81 7h-486v-661h451q53 0 77 8t27 41h15v-139h-15q-7 34 -27 42t-65 7h-463v-455q0 -102 20 -148t58 -58q40 -12 127 -11h260q105 0 149 7q44 6 70 38q24 32 35 109h14v-203h-1007v14q56 4 80 21t24 84v1190
q0 89 -17 118t-87 29zM270 1670q0 39 27 66t65 27t66 -28q27 -28 27 -65t-27 -65q-28 -28 -66 -28t-65 27t-27 66zM657 1670q0 39 27 66t66 27q40 1 66 -27t26 -66t-26 -66t-66 -27q-39 0 -66 27t-27 66z" />
    <glyph glyph-name="igrave" unicode="&#xec;" horiz-adv-x="532" 
d="M463 1473v-15q-35 2 -73 -12t-38 -66q-2 -12 -2 -75v-1131q0 -70 5 -100q10 -61 108 -60v-14h-393v14q54 2 76 14t28 42q6 29 6 102v1120q0 67 -5 100q-11 71 -105 66v15h393zM76 1884h180l170 -309h-47z" />
    <glyph glyph-name="iacute" unicode="&#xed;" horiz-adv-x="532" 
d="M463 1473v-15q-35 2 -73 -12t-38 -66q-2 -12 -2 -75v-1131q0 -70 5 -100q10 -61 108 -60v-14h-393v14q54 2 76 14t28 42q6 29 6 102v1120q0 67 -5 100q-11 71 -105 66v15h393zM278 1884h180l-303 -309h-47z" />
    <glyph glyph-name="icircumflex" unicode="&#xee;" horiz-adv-x="532" 
d="M463 1473v-15q-35 2 -73 -12t-38 -66q-2 -12 -2 -75v-1131q0 -70 5 -100q10 -61 108 -60v-14h-393v14q54 2 76 14t28 42q6 29 6 102v1120q0 67 -5 100q-11 71 -105 66v15h393zM321 1884l264 -309h-45l-272 192l-272 -192h-47l264 309h108z" />
    <glyph glyph-name="idieresis" unicode="&#xef;" horiz-adv-x="532" 
d="M463 1473v-15q-35 2 -73 -12t-38 -66q-2 -12 -2 -75v-1131q0 -70 5 -100q10 -61 108 -60v-14h-393v14q54 2 76 14t28 42q6 29 6 102v1120q0 67 -5 100q-11 71 -105 66v15h393zM-19 1670q0 39 27 66q28 27 66 27t65 -28t27 -65t-27 -65t-65 -28t-66 27q-27 27 -27 66z
M368 1670q0 39 27 66t66 27q39 1 65 -27t27 -66q-1 -38 -27 -66t-65 -27q-39 0 -66 27t-27 66z" />
    <glyph glyph-name="eth" unicode="&#xf0;" horiz-adv-x="1729" 
d="M885 723h-531v-424q0 -93 43.5 -176.5t354.5 -83.5q253 0 425 84t248 268.5t76 300.5t-26.5 210.5t-83 184.5t-221 222.5t-590.5 132.5h-226v-678h531v-41zM184 723h-131v41h131v524q0 78 -4.5 109.5t-25.5 45t-74 15.5v15h674q260 0 395 -36.5t223 -94.5t189.5 -187
t101.5 -363t-150.5 -479.5t-355.5 -279t-387 -33.5h-692v14q54 5 74.5 19.5t26 49.5t5.5 132v508z" />
    <glyph glyph-name="ntilde" unicode="&#xf1;" horiz-adv-x="1642" 
d="M1288 1473h285v-15q-67 -2 -91 -28t-24 -107v-1341l-1175 1251v-1090q0 -81 18 -99t32 -21t56 -9v-14h-283v14q56 1 80 15q24 15 28 43q5 28 5 98v997q0 125 -35 211t-170 80v15h277l1104 -1176v1040q1 77 -25 99t-82 22v15zM690 1790q37 0 74 -14q38 -14 106 -48t86 -40
q18 -7 49 -7q95 0 119 109h41q2 -126 -110 -186q-51 -28 -103 -27q-52 0 -82 11q-30 12 -95 44q-63 32 -91 43t-61 11t-65 -26t-36 -83h-43q-3 150 135 199q39 14 76 14z" />
    <glyph glyph-name="ograve" unicode="&#xf2;" horiz-adv-x="1665" 
d="M1505 680q0 147 -72 289q-73 141 -187 241t-246 154t-257 53t-259 -73t-219 -204t-85 -317q0 -183 100 -365t262 -292q163 -110 345 -111q116 0 229 47q113 48 199 128t138 192t52 258zM1597 820q0 -152 -55 -309q-56 -156 -164 -277t-265 -189t-331 -68q-327 0 -520 200
q-194 200 -194 480q0 143 52 291t155 272t260 199q157 76 337 76q180 -1 310 -51t223 -142q94 -92 143 -210q49 -120 49 -272zM642 1884h180l170 -309h-47z" />
    <glyph glyph-name="oacute" unicode="&#xf3;" horiz-adv-x="1665" 
d="M1505 680q0 147 -72 289q-73 141 -187 241t-246 154t-257 53t-259 -73t-219 -204t-85 -317q0 -183 100 -365t262 -292q163 -110 345 -111q116 0 229 47q113 48 199 128t138 192t52 258zM1597 820q0 -152 -55 -309q-56 -156 -164 -277t-265 -189t-331 -68q-327 0 -520 200
q-194 200 -194 480q0 143 52 291t155 272t260 199q157 76 337 76q180 -1 310 -51t223 -142q94 -92 143 -210q49 -120 49 -272zM844 1884h180l-303 -309h-47z" />
    <glyph glyph-name="ocircumflex" unicode="&#xf4;" horiz-adv-x="1665" 
d="M1505 680q0 147 -72 289q-73 141 -187 241t-246 154t-257 53t-259 -73t-219 -204t-85 -317q0 -183 100 -365t262 -292q163 -110 345 -111q116 0 229 47q113 48 199 128t138 192t52 258zM1597 820q0 -152 -55 -309q-56 -156 -164 -277t-265 -189t-331 -68q-327 0 -520 200
q-194 200 -194 480q0 143 52 291t155 272t260 199q157 76 337 76q180 -1 310 -51t223 -142q94 -92 143 -210q49 -120 49 -272zM887 1884l264 -309h-45l-272 192l-272 -192h-47l264 309h108z" />
    <glyph glyph-name="otilde" unicode="&#xf5;" horiz-adv-x="1665" 
d="M1505 680q0 147 -72 289q-73 141 -187 241t-246 154t-257 53t-259 -73t-219 -204t-85 -317q0 -183 100 -365t262 -292q163 -110 345 -111q116 0 229 47q113 48 199 128t138 192t52 258zM1597 820q0 -152 -55 -309q-56 -156 -164 -277t-265 -189t-331 -68q-327 0 -520 200
q-194 200 -194 480q0 143 52 291t155 272t260 199q157 76 337 76q180 -1 310 -51t223 -142q94 -92 143 -210q49 -120 49 -272zM701 1790q37 0 74 -14t105 -48t88 -40q18 -7 48 -7q95 0 119 109h41q2 -126 -110 -186q-52 -28 -104 -27q-52 0 -82 11q-30 12 -94 44t-92 43
t-60 11q-34 0 -66 -26t-35 -83h-43q-3 150 135 199q39 14 76 14z" />
    <glyph glyph-name="odieresis" unicode="&#xf6;" horiz-adv-x="1665" 
d="M1505 680q0 147 -72 289q-73 141 -187 241t-246 154t-257 53t-259 -73t-219 -204t-85 -317q0 -183 100 -365t262 -292q163 -110 345 -111q116 0 229 47q113 48 199 128t138 192t52 258zM1597 820q0 -152 -55 -309q-56 -156 -164 -277t-265 -189t-331 -68q-327 0 -520 200
q-194 200 -194 480q0 143 52 291t155 272t260 199q157 76 337 76q180 -1 310 -51t223 -142q94 -92 143 -210q49 -120 49 -272zM547 1670q0 39 27 66q28 27 66 27t65 -28t27 -65t-27 -65t-65 -28t-66 27q-27 27 -27 66zM934 1670q0 39 27 66t66 27q39 1 65 -27t27 -66
q-1 -38 -27 -66t-65 -27q-39 0 -66 27t-27 66z" />
    <glyph glyph-name="divide" unicode="&#xf7;" horiz-adv-x="1124" 
d="M434 261q0 47 33.5 80.5t72.5 33.5t81.5 -24t42.5 -81t-34 -91t-82 -34t-81 34.5t-33 81.5zM434 820q0 47 33.5 80.5t72.5 33.5t81.5 -24t42.5 -81t-35 -90.5t-81 -33.5t-80 34t-34 81zM20 483v113h1078v-113h-1078z" />
    <glyph glyph-name="oslash" unicode="&#xf8;" horiz-adv-x="1665" 
d="M889 51q148 0 291 77t234 218t91 323t-77.5 312.5t-165.5 212.5l-830 -938q203 -205 457 -205zM756 1417q-100 0 -202 -40t-187 -116t-136 -184.5t-51 -254.5t64.5 -291t158.5 -248l830 936q-27 27 -111.5 80t-175 85.5t-190.5 32.5zM287 152q-219 191 -219 526
q0 122 52 270t155.5 272.5t260.5 200.5t357 76q268 0 457 -145l129 145l28 -24l-129 -146q73 -63 146 -183t73 -295t-53.5 -330.5t-158 -277.5t-263 -194t-358.5 -72q-257 0 -442 148q-1 1 -3 2t-2 2l-133 -152l-30 25z" />
    <glyph glyph-name="ugrave" unicode="&#xf9;" horiz-adv-x="1536" 
d="M1452 0h-278v227q-212 -237 -508 -237q-203 0 -340 115q-136 115 -136 348v882q0 55 -7 80q-13 45 -101 43v15h391v-15q-57 0 -85 -18t-28 -94v-809q0 -260 130 -374q111 -97 260 -97q239 0 424 215v997q0 74 -6 110q-13 70 -89 70h-14v15h387v-15q-59 -2 -84 -18
t-25 -82v-1200q0 -57 5 -85q11 -61 104 -59v-14zM578 1884h180l170 -309h-47z" />
    <glyph glyph-name="uacute" unicode="&#xfa;" horiz-adv-x="1536" 
d="M1452 0h-278v227q-212 -237 -508 -237q-203 0 -340 115q-136 115 -136 348v882q0 55 -7 80q-13 45 -101 43v15h391v-15q-57 0 -85 -18t-28 -94v-809q0 -260 130 -374q111 -97 260 -97q239 0 424 215v997q0 74 -6 110q-13 70 -89 70h-14v15h387v-15q-59 -2 -84 -18
t-25 -82v-1200q0 -57 5 -85q11 -61 104 -59v-14zM780 1884h180l-303 -309h-47z" />
    <glyph glyph-name="ucircumflex" unicode="&#xfb;" horiz-adv-x="1536" 
d="M1452 0h-278v227q-212 -237 -508 -237q-203 0 -340 115q-136 115 -136 348v882q0 55 -7 80q-13 45 -101 43v15h391v-15q-57 0 -85 -18t-28 -94v-809q0 -260 130 -374q111 -97 260 -97q239 0 424 215v997q0 74 -6 110q-13 70 -89 70h-14v15h387v-15q-59 -2 -84 -18
t-25 -82v-1200q0 -57 5 -85q11 -61 104 -59v-14zM823 1884l264 -309h-45l-272 192l-272 -192h-47l264 309h108z" />
    <glyph glyph-name="udieresis" unicode="&#xfc;" horiz-adv-x="1536" 
d="M1452 0h-278v227q-212 -237 -508 -237q-203 0 -340 115q-136 115 -136 348v882q0 55 -7 80q-13 45 -101 43v15h391v-15q-57 0 -85 -18t-28 -94v-809q0 -260 130 -374q111 -97 260 -97q239 0 424 215v997q0 74 -6 110q-13 70 -89 70h-14v15h387v-15q-59 -2 -84 -18
t-25 -82v-1200q0 -57 5 -85q11 -61 104 -59v-14zM483 1670q0 39 27 66q28 27 66 27t65 -28t27 -65t-27 -65t-65 -28t-66 27q-27 27 -27 66zM870 1670q0 39 27 66t66 27q39 1 65 -27t27 -66q-1 -38 -27 -66t-65 -27q-39 0 -66 27t-27 66z" />
    <glyph glyph-name="yacute" unicode="&#xfd;" horiz-adv-x="1174" 
d="M940 1473h221v-15q-41 -2 -69 -20t-62 -70l-360 -545v-676q0 -83 20 -107t92 -26v-14h-393v14q47 -2 80 14t33 85l-2 32v623l-361 598q-53 94 -127 92v15h348v-15q-49 0 -49 -37q1 -9 13 -34l12 -25l297 -490l325 494l5 4q26 43 26 55q0 33 -43 33h-6v15zM598 1884h180
l-303 -309h-47z" />
    <glyph glyph-name="thorn" unicode="&#xfe;" horiz-adv-x="1087" 
d="M356 1081v-690h154q44 0 110.5 12.5t113.5 38.5t90.5 95t43.5 171t-49.5 196t-127.5 135.5t-214 41.5h-121zM463 1473v-15q-60 -2 -83.5 -23.5t-23.5 -101.5v-213h201q199 0 332 -64.5t133 -258.5q0 -161 -118 -281t-216 -142t-213 -22h-119v-211q0 -100 32 -112.5
t75 -14.5v-14h-381v14q84 2 94 40.5t10 99.5v1171q0 86 -22 108.5t-82 24.5v15h381z" />
    <glyph glyph-name="ydieresis" unicode="&#xff;" horiz-adv-x="1174" 
d="M940 1473h221v-15q-41 -2 -69 -20t-62 -70l-360 -545v-676q0 -83 20 -107t92 -26v-14h-393v14q47 -2 80 14t33 85l-2 32v623l-361 598q-53 94 -127 92v15h348v-15q-49 0 -49 -37q1 -9 13 -34l12 -25l297 -490l325 494l5 4q26 43 26 55q0 33 -43 33h-6v15zM301 1670
q0 39 27 66q28 27 66 27t65 -28t27 -65t-27 -65t-65 -28t-66 27q-27 27 -27 66zM688 1670q0 39 27 66t66 27q39 1 65 -27t27 -66q-1 -38 -27 -66t-65 -27q-39 0 -66 27t-27 66z" />
    <glyph glyph-name="Lslash" unicode="&#x141;" 
d="M25 0v12q69 0 88.5 27t19.5 90v420l-127 -115v53l127 115v733q0 80 -22 100.5t-88 22.5v15h395v-15q-98 2 -106.5 -40t-8.5 -93v-569l356 317v-53l-356 -318v-411q0 -134 65.5 -188t219.5 -54h180q184 0 217.5 98.5t40.5 206.5h14v-354h-1015z" />
    <glyph glyph-name="lslash" unicode="&#x142;" 
d="M25 0v12q69 0 88.5 27t19.5 90v420l-127 -115v53l127 115v733q0 80 -22 100.5t-88 22.5v15h395v-15q-98 2 -106.5 -40t-8.5 -93v-569l356 317v-53l-356 -318v-411q0 -134 65.5 -188t219.5 -54h180q184 0 217.5 98.5t40.5 206.5h14v-354h-1015z" />
    <glyph glyph-name="OE" unicode="&#x152;" horiz-adv-x="2028" 
d="M1108 262v983q0 91 -11 129t-40.5 49t-104.5 11q-518 0 -610 -261t-92 -403q0 -217 89.5 -384t243.5 -257t343 -90h37q96 0 120.5 55t24.5 168zM1845 811v-139h-12q-5 34 -27 41.5t-71 7.5h-457v-432q0 -88 4.5 -128.5t32.5 -76t186 -35.5h311q82 0 126.5 27.5
t56.5 126.5h12v-203h-1124q-297 0 -461 93t-256 257t-92 357q0 259 136 432.5t288 253.5t395 80h1036v-203h-14q-15 77 -31 108t-40.5 38t-84.5 7h-481v-661h475q33 0 53 8t27 41h12z" />
    <glyph glyph-name="oe" unicode="&#x153;" horiz-adv-x="2028" 
d="M1108 262v983q0 91 -11 129t-40.5 49t-104.5 11q-518 0 -610 -261t-92 -403q0 -217 89.5 -384t243.5 -257t343 -90h37q96 0 120.5 55t24.5 168zM1845 811v-139h-12q-5 34 -27 41.5t-71 7.5h-457v-432q0 -88 4.5 -128.5t32.5 -76t186 -35.5h311q82 0 126.5 27.5
t56.5 126.5h12v-203h-1124q-297 0 -461 93t-256 257t-92 357q0 259 136 432.5t288 253.5t395 80h1036v-203h-14q-15 77 -31 108t-40.5 38t-84.5 7h-481v-661h475q33 0 53 8t27 41h12z" />
    <glyph glyph-name="Scaron" unicode="&#x160;" horiz-adv-x="981" 
d="M506 1495q116 0 280 -41l70 -184l-12 -2q-1 2 -25 29q-134 151 -319 151q-103 0 -178 -42q-74 -42 -112 -110t-38 -140q0 -130 99 -200q56 -39 196 -84q139 -44 231 -88t165 -134t73 -227t-65 -235t-162 -147q-39 -17 -133 -29t-132 -12h-393v428h15q2 -94 18 -160
q56 -220 387 -221q216 0 313 116q70 83 70 180t-50 159t-122 96q-72 35 -196 78t-176 69t-100 72q-48 47 -81 119t-33 168t50 188t148 148q96 56 212 55zM437 1575l-264 309h45l272 -192l272 192h47l-264 -309h-108z" />
    <glyph glyph-name="scaron" unicode="&#x161;" horiz-adv-x="981" 
d="M506 1495q116 0 280 -41l70 -184l-12 -2q-1 2 -25 29q-134 151 -319 151q-103 0 -178 -42q-74 -42 -112 -110t-38 -140q0 -130 99 -200q56 -39 196 -84q139 -44 231 -88t165 -134t73 -227t-65 -235t-162 -147q-39 -17 -133 -29t-132 -12h-393v428h15q2 -94 18 -160
q56 -220 387 -221q216 0 313 116q70 83 70 180t-50 159t-122 96q-72 35 -196 78t-176 69t-100 72q-48 47 -81 119t-33 168t50 188t148 148q96 56 212 55zM437 1575l-264 309h45l272 -192l272 192h47l-264 -309h-108z" />
    <glyph glyph-name="Ydieresis" unicode="&#x178;" horiz-adv-x="1174" 
d="M940 1473h221v-15q-41 -2 -69 -20t-62 -70l-360 -545v-676q0 -83 20 -107t92 -26v-14h-393v14q47 -2 80 14t33 85l-2 32v623l-361 598q-53 94 -127 92v15h348v-15q-49 0 -49 -37q1 -9 13 -34l12 -25l297 -490l325 494l5 4q26 43 26 55q0 33 -43 33h-6v15zM301 1670
q0 39 27 66q28 27 66 27t65 -28t27 -65t-27 -65t-65 -28t-66 27q-27 27 -27 66zM688 1670q0 39 27 66t66 27q39 1 65 -27t27 -66q-1 -38 -27 -66t-65 -27q-39 0 -66 27t-27 66z" />
    <glyph glyph-name="Zcaron" unicode="&#x17d;" horiz-adv-x="1450" 
d="M1411 231v-231h-1397l1143 1417h-766q-69 1 -103 -11t-51 -41q-16 -29 -26 -93h-14l8 201h1212l-1147 -1418h977q79 0 111 32t39 144h14zM672 1575l-264 309h45l272 -192l272 192h47l-264 -309h-108z" />
    <glyph glyph-name="zcaron" unicode="&#x17e;" horiz-adv-x="1450" 
d="M1411 231v-231h-1397l1143 1417h-766q-69 1 -103 -11t-51 -41q-16 -29 -26 -93h-14l8 201h1212l-1147 -1418h977q79 0 111 32t39 144h14zM672 1575l-264 309h45l272 -192l272 192h47l-264 -309h-108z" />
    <glyph glyph-name="florin" unicode="&#x192;" 
d="M905 891v-43h-254l-69 -801q-17 -207 -86.5 -358.5t-276.5 -151.5q-106 0 -209 39l2 266h13q14 -127 66 -195.5t120 -68.5q107 0 150 104t57 267l76 899h-170v43h174l14 156q9 119 32 211.5t96 166.5t210 74q66 0 112 -15.5t103 -41.5l25 -201h-17q-69 215 -215 215
q-73 0 -112 -49t-52.5 -116.5t-21.5 -178.5l-19 -221h252z" />
    <glyph glyph-name="circumflex" unicode="&#x2c6;" horiz-adv-x="682" 
d="M395 1884l264 -309h-45l-272 192l-272 -192h-47l264 309h108z" />
    <glyph glyph-name="Caron" unicode="&#x2c7;" horiz-adv-x="682" 
d="M287 1575l-264 309h45l272 -192l272 192h47l-264 -309h-108z" />
    <glyph glyph-name="Macron" unicode="&#x2c9;" horiz-adv-x="682" 
d="M770 1778v-74h-819v74h819z" />
    <glyph glyph-name="Breve" unicode="&#x2d8;" horiz-adv-x="682" 
d="M343 1577q-86 0 -187.5 60t-112.5 229h43q19 -78 84.5 -124t171.5 -46t172.5 48.5t83.5 121.5h43q-11 -167 -111.5 -228t-186.5 -61z" />
    <glyph glyph-name="Dotaccent" unicode="&#x2d9;" horiz-adv-x="682" 
d="M250 1670q0 39 27 66t66 27t65 -28t26 -65t-26 -65t-65 -28t-66 27t-27 66z" />
    <glyph glyph-name="Ring" unicode="&#x2da;" horiz-adv-x="682" 
d="M223 1740q0 -48 34.5 -83t84.5 -35t83.5 36t33.5 82t-33.5 80.5t-83.5 34.5t-84.5 -33.5t-34.5 -81.5zM178 1728q0 57 22.5 93.5t60.5 58t93 21.5t102.5 -47.5t47.5 -115.5t-47 -115.5t-115 -47.5t-116 48t-48 105z" />
    <glyph glyph-name="Ogonek" unicode="&#x2db;" horiz-adv-x="682" 
d="M264 -216q0 -78 48.5 -126.5t93.5 -48.5t90 16l16 -33q-83 -41 -145 -41q-103 0 -152 62.5t-49 132.5t38 130.5t115 135.5h52q-54 -54 -80.5 -102t-26.5 -126z" />
    <glyph glyph-name="Tilde" unicode="&#x2dc;" horiz-adv-x="682" 
d="M209 1790q37 0 74 -14t105 -48t87 -40.5t49 -6.5q95 0 119 109h41q2 -126 -80 -169.5t-134 -43.5t-82 11.5t-94 43.5t-91.5 43t-60.5 11t-65.5 -25.5t-35.5 -83.5h-43q-3 150 85.5 181.5t125.5 31.5z" />
    <glyph glyph-name="Hungarumlaut" unicode="&#x2dd;" horiz-adv-x="682" 
d="M520 1884h180l-303 -309h-47zM238 1884h180l-303 -309h-47z" />
    <glyph glyph-name="pi" unicode="&#x3c0;" horiz-adv-x="1124" 
d="M233 821q-41 0 -78 -19.5t-57 -45.5l-43 -64h-35q50 140 89 195q77 110 196 110h764v-176h-258q-25 -239 -25 -481q0 -99 55 -152q25 -24 66 -32t73 18t42.5 49t13.5 44l6 42h43q-2 -158 -73.5 -245.5t-138.5 -94t-107 20.5q-152 111 -115 502l35 329h-231
q-38 -448 -95 -719q-26 -116 -108 -138q-44 -12 -83.5 14t-46.5 58q-11 49 4 78.5t61.5 84.5t62.5 85.5t20 67.5l60 469h-97z" />
    <glyph glyph-name="endash" unicode="&#x2013;" horiz-adv-x="1024" 
d="M-12 778h1048v-82h-1048v82z" />
    <glyph glyph-name="emdash" unicode="&#x2014;" horiz-adv-x="2048" 
d="M-12 778h2072v-82h-2072v82z" />
    <glyph glyph-name="quoteleft" unicode="&#x2018;" horiz-adv-x="342" 
d="M305 1053q0 -43 -30.5 -76t-87.5 -33t-102.5 54.5t-45.5 149.5t44.5 164.5t97 107.5t120.5 75l6 -8q-104 -75 -140 -158.5t-36 -142.5q0 -11 6.5 -25t16.5 -14l43 8q43 0 75.5 -29.5t32.5 -72.5z" />
    <glyph glyph-name="quoteright" unicode="&#x2019;" horiz-adv-x="342" 
d="M37 1386q0 43 31 76t88 33t102 -53.5t45 -149.5t-44.5 -165.5t-97 -107.5t-120.5 -75l-6 8q105 76 140.5 158t35.5 132t-23 50l-43 -8q-41 0 -74.5 29.5t-33.5 72.5z" />
    <glyph glyph-name="quotesinglbase" unicode="&#x201a;" horiz-adv-x="342" 
d="M211 -64q0 50 -21 50q-6 0 -22 -4l-23 -5q-40 0 -74 29t-34 73t31.5 76.5t87.5 32.5t101.5 -52.5t45.5 -147.5q0 -139 -78.5 -218t-181.5 -132l-8 8q105 74 140.5 157t35.5 133z" />
    <glyph glyph-name="quotedblleft" unicode="&#x201c;" horiz-adv-x="682" 
d="M303 1053q0 -43 -31.5 -76t-75.5 -33t-101.5 38.5t-57.5 149.5t44.5 180.5t97 107.5t120.5 75l8 -8q-106 -75 -141 -157t-35 -132t21 -51l43 8q43 0 75.5 -29.5t32.5 -72.5zM645 1053q0 -43 -31.5 -76t-87.5 -33t-101.5 54.5t-45.5 149.5t44.5 164.5t97 107.5t120.5 75
l6 -8q-104 -75 -140 -158.5t-36 -142.5q0 -11 6.5 -25t16.5 -14l43 8q43 0 75.5 -29.5t32.5 -72.5z" />
    <glyph glyph-name="quotedblright" unicode="&#x201d;" horiz-adv-x="682" 
d="M379 1386q0 43 31.5 76t87.5 33t101.5 -53.5t45.5 -149.5t-44.5 -165.5t-97 -107.5t-120.5 -75l-8 8q176 127 176 301q0 39 -21 39l-43 -8q-41 0 -74.5 29.5t-33.5 72.5zM37 1386q0 43 31 76t88 33t102 -53.5t45 -149.5t-44.5 -165.5t-97 -107.5t-120.5 -75l-6 8
q105 76 140.5 158t35.5 132t-23 50l-43 -8q-41 0 -74.5 29.5t-33.5 72.5z" />
    <glyph glyph-name="quotedblbase" unicode="&#x201e;" horiz-adv-x="682" 
d="M551 -64q0 50 -21 50q-4 0 -20 -4l-23 -5q-41 0 -74.5 29.5t-33.5 73.5t31.5 76t87.5 32t101.5 -53t45.5 -149t-45.5 -166.5t-103 -112t-113.5 -69.5l-8 8q105 74 140.5 157t35.5 133zM211 -64q0 50 -23 50q-4 0 -20 -4l-23 -5q-41 0 -74.5 29.5t-33.5 73.5t31.5 76
t87.5 32t101.5 -53t45.5 -149t-45.5 -166.5t-103 -112t-113.5 -69.5l-6 8q104 75 140 157.5t36 132.5z" />
    <glyph glyph-name="bullet" unicode="&#x2022;" horiz-adv-x="717" 
d="M610 678q0 -103 -73.5 -177.5t-178.5 -74.5q-68 0 -125 34t-90.5 92t-33.5 126t33.5 125t90.5 91t126 34t127 -34t91 -91t33 -125z" />
    <glyph glyph-name="ellipsis" unicode="&#x2026;" horiz-adv-x="2048" 
d="M342 197q45 0 77 -32.5t32 -76.5t-32.5 -76t-76.5 -32t-76.5 32.5t-32.5 75.5t32 76t77 33zM1024 197q45 0 77 -32.5t32 -76.5t-32.5 -76t-76.5 -32t-76.5 32.5t-32.5 75.5t32 76t77 33zM1706 197q45 0 77 -32.5t32 -76.5t-32.5 -76t-76.5 -32t-76.5 32.5t-32.5 75.5
t32 76t77 33z" />
    <glyph glyph-name="guilsinglleft" unicode="&#x2039;" horiz-adv-x="492" 
d="M438 1116l-196 -381l198 -377h-32l-353 379l348 379h35z" />
    <glyph glyph-name="guilsinglright" unicode="&#x203a;" horiz-adv-x="492" 
d="M53 358l197 381l-199 377h33l352 -379l-348 -379h-35z" />
    <glyph glyph-name="trademark" unicode="&#x2122;" horiz-adv-x="2007" 
d="M1972 1524v-37q-51 -2 -72.5 -11.5t-28.5 -35.5t-7 -88v-467q0 -82 17 -105.5t91 -27.5v-35h-397v35q77 3 98 27t21 104v491h-4l-301 -657h-33l-305 649h-4v-481q0 -73 15.5 -103t78.5 -30h37v-35h-308v35q51 1 74.5 11t31 35.5t7.5 84.5v467q0 86 -16.5 111.5
t-96.5 25.5v37h287l273 -572l264 572h278zM573 1464h-73v-579q0 -102 28.5 -116t75.5 -17v-35h-375v35q66 8 83.5 28.5t17.5 102.5v581h-76q-98 0 -136 -32.5t-55 -108.5h-32l20 201h729l21 -201h-33q-12 88 -63 114.5t-132 26.5z" />
    <glyph glyph-name="Omega" unicode="&#x2126;" horiz-adv-x="1573" 
d="M70 0v332h30q20 -78 45.5 -101.5t90.5 -23.5h323l-4 57q-167 51 -235 107.5t-122 137.5t-86 243.5t68 339.5q52 95 106.5 139.5t125.5 86.5q155 90 377 91q222 0 374 -90q73 -42 127 -85.5t102 -131.5t76.5 -252t-104.5 -363q-60 -87 -137.5 -135.5t-204.5 -87.5l-4 -57
h323q65 0 91.5 24.5t44.5 100.5h30v-332h-604l33 311q85 38 137 74.5t97 141.5q45 104 55.5 233.5t-22.5 261t-118 215.5q-106 106 -297 106t-296 -106q-85 -84 -118 -215.5t-22.5 -260.5t42.5 -205q57 -132 113.5 -172.5t133.5 -72.5l33 -311h-604z" />
    <glyph glyph-name="partialdiff" unicode="&#x2202;" horiz-adv-x="1012" 
d="M229 300q0 -188 95 -253q78 -49 175 -7q98 42 161 192t90 380q-59 67 -101 99.5t-121 31.5q-117 -3 -196 -110q-103 -145 -103 -333zM946 802q0 -44 -17.5 -213.5t-77.5 -296.5q-59 -126 -102.5 -184t-133.5 -108t-224 -40.5t-229.5 117.5t-105.5 230q-17 210 109 366
q126 155 294 150q88 -3 147 -31t160 -108q41 228 10.5 369t-54.5 197t-84 114.5t-130 64.5t-103.5 4t-56.5 -9t-64 -26t-71 -32l-80 102q76 34 176.5 52t198.5 -5q212 -50 340 -274q98 -171 98 -439z" />
    <glyph glyph-name="Delta" unicode="&#x2206;" horiz-adv-x="1253" 
d="M594 1059l-447 -959h844zM668 1409l577 -1409h-1233z" />
    <glyph glyph-name="product" unicode="&#x220f;" horiz-adv-x="1686" 
d="M1446 1288v-1282q0 -127 67 -146.5t132 -19.5v-47h-627v47q100 0 148 33t48 133v1419h-733v-1419q0 -127 67 -146.5t132 -19.5v-47h-629v47q102 0 150.5 33t48.5 133v1282q0 203 -195 203v47h1583v-47q-192 0 -192 -203z" />
    <glyph glyph-name="summation" unicode="&#x2211;" horiz-adv-x="1460" 
d="M922 1434h-539l559 -734l-602 -694h760q83 0 128 19.5t77 66t71 146.5h47q-45 -185 -56 -245t-32 -214q-123 22 -157 22h-1031q-14 0 -36.5 -1.5l-45 -3t-36.5 -1.5l714 815l-710 930l213 -14h1018l12 -326h-41q-32 102 -50.5 139t-79 66t-183.5 29z" />
    <glyph glyph-name="fraction" unicode="&#x2215;" horiz-adv-x="342" 
d="M582 1386h114l-950 -1411h-115z" />
    <glyph glyph-name="periodcentered" unicode="&#x2219;" horiz-adv-x="342" 
d="M171 848q45 0 76.5 -31.5t31.5 -76.5t-31 -77t-77 -32t-78 33t-32 76t32.5 75.5t77.5 32.5z" />
    <glyph glyph-name="radical" unicode="&#x221a;" horiz-adv-x="1124" 
d="M53 854l-33 68l299 147l404 -825l260 1634l72 -10l-307 -1946l-498 1028z" />
    <glyph glyph-name="infinity" unicode="&#x221e;" horiz-adv-x="1460" 
d="M799 541q125 -123 169 -146.5t100 -36.5t111 6t91 64.5t38 97.5t-30 106t-93 78.5t-127 1.5t-119 -60.5t-140 -110.5zM664 541q-161 137 -233 163q-127 45 -201 -20.5t-74 -137.5t36.5 -117.5t91 -64.5t122.5 -3t111 47.5t147 132.5zM731 608q133 119 176 146t101 53
t129.5 21.5t131.5 -41t97 -93.5t44 -129t-30.5 -148.5t-109.5 -123t-152 -38.5t-144 35.5t-109 61t-87.5 76t-46.5 45.5q-85 -85 -163 -144.5t-214 -72.5q-89 -9 -161.5 37.5t-110.5 123.5t-30 149q15 147 157 231.5t265.5 7t256.5 -196.5z" />
    <glyph glyph-name="integral" unicode="&#x222b;" horiz-adv-x="561" 
d="M246 795v295q0 367 36 573t129 210.5t130 -19.5t50.5 -67t-7.5 -69t-67.5 -45t-87.5 24t-62 16.5t0.5 -289t21.5 -425.5l-2 -442q-2 -364 -70 -600q-21 -76 -59 -125q-17 -22 -75.5 -42t-92.5 -4q-59 28 -83 95t52 103q34 17 60.5 5t56.5 -44t58 6.5t24 194.5t-8 265.5
t-4 383.5z" />
    <glyph glyph-name="approxequal" unicode="&#x2248;" horiz-adv-x="1124" 
d="M1004 498l75 -49q-58 -99 -163.5 -139t-200.5 -13l-307 88q-170 49 -226 -24t-65 -85l-88 56q79 105 182.5 142t216.5 5l309 -86q68 -21 148 13t119 92zM1004 807l75 -49q-58 -97 -163.5 -138t-200.5 -14l-307 88q-122 35 -180.5 -3t-78.5 -64t-32 -41l-88 55
q79 105 182.5 142t216.5 5l309 -86q68 -20 148 14t119 91z" />
    <glyph glyph-name="notequal" unicode="&#x2260;" horiz-adv-x="1124" 
d="M1106 788v-112h-399l-160 -285h559v-112h-621l-184 -330l-100 57l151 273h-321v112h385l157 285h-542v112h606l186 336l101 -57l-156 -279h338z" />
    <glyph glyph-name="lessequal" unicode="&#x2264;" horiz-adv-x="1124" 
d="M59 711v127l1018 471v-127l-887 -408l887 -407v-127zM59 0v113h1018v-113h-1018z" />
    <glyph glyph-name="greaterequal" unicode="&#x2265;" horiz-adv-x="1124" 
d="M1077 838v-127l-1018 -471v127l887 407l-887 408v127zM1077 113v-113h-1018v113h1018z" />
    <glyph glyph-name="lozenge" unicode="&#x25ca;" horiz-adv-x="1012" 
d="M831 772l-335 643l-336 -643l336 -661zM557 0h-123l-397 772l397 754h123l397 -754z" />
    <glyph glyph-name="496e" unicode="&#x496e;" horiz-adv-x="1024" 
d="M123 1324v-1283h778v1283h-778zM82 1365h860v-1365h-860v1365z" />
    <glyph glyph-name="496e" unicode="&#x6e74;" horiz-adv-x="1024" 
d="M123 1324v-1283h778v1283h-778zM82 1365h860v-1365h-860v1365z" />
    <glyph glyph-name="496e" unicode="&#x6465;" horiz-adv-x="1024" 
d="M123 1324v-1283h778v1283h-778zM82 1365h860v-1365h-860v1365z" />
    <glyph glyph-name="apple" unicode="&#xf000;" horiz-adv-x="1618" 
d="M1160 1588q0 -35 -6 -66t-35.5 -92t-172.5 -150q-14 -9 -115 -18q-7 62 30 154t89 135t104 69t105 35q1 -32 1 -67zM839 61q-53 0 -133 -38t-156 -25q-76 14 -140 72t-108 125t-95 178t-77.5 250.5t-8.5 236.5q66 357 264.5 388t269.5 12q15 -4 77 -30t106 -26t104.5 26
t77.5 30q74 18 180.5 2t179.5 -74q27 -20 78 -78q-77 -58 -157 -157.5t-22.5 -266.5t88.5 -182l134 -68q-94 -200 -137.5 -258.5t-75.5 -88.5t-58.5 -55.5t-100.5 -36.5q-73 -12 -155 26t-135 38z" />
    <glyph glyph-name="fi" unicode="&#xf001;" horiz-adv-x="1556" 
d="M348 733v-588q0 -78 22 -104t91 -27v-14h-387v14q60 0 82 21t22 78v1212q0 103 -46 123q-22 10 -58 10v15h932v-173h-15q0 7 -2 13q-17 70 -51 90t-115 20h-475v-649h443q52 0 75 8t27 41h14v-141h-14q-5 51 -66 51h-479zM1487 1473v-15q-35 2 -73 -12t-38 -66
q-2 -12 -2 -75v-1131q0 -70 5 -100q10 -61 108 -60v-14h-393v14q54 2 76 14t28 42q6 29 6 102v1120q0 67 -5 100q-11 71 -105 66v15h393z" />
    <glyph glyph-name="fl" unicode="&#xf002;" horiz-adv-x="2134" 
d="M348 733v-588q0 -78 22 -104t91 -27v-14h-387v14q60 0 82 21t22 78v1212q0 103 -46 123q-22 10 -58 10v15h932v-173h-15q0 7 -2 13q-17 70 -51 90t-115 20h-475v-649h443q52 0 75 8t27 41h14v-141h-14q-5 51 -66 51h-479zM1049 0v14q71 0 91 26t19 89v1206q-1 79 -23 100
t-89 23v15h395v-15q-97 2 -108 -56q-5 -26 -5 -77v-1034q0 -133 65 -188q65 -54 218 -54h180q184 -1 230 133q22 66 28 172h14v-354h-1015z" />
    </font>
</defs>
</svg>
